<svg width="208" height="233" viewBox="0 0 208 233" fill="none" xmlns="http://www.w3.org/2000/svg">
<path d="M90.5356 93.2602L103.911 58.4396L117.288 93.2602L154.131 87.4339L130.664 116.428L154.131 145.422L117.288 139.597L103.911 174.417L90.5356 139.597L53.6917 145.422L77.1588 116.428L53.6917 87.4339L90.5356 93.2602Z" stroke="#DABBA6" stroke-width="1.10809" stroke-miterlimit="10"/>
<path d="M121.542 47.8762L103.912 105.174L86.2819 47.8762" stroke="#DABBA6" stroke-width="0.831067" stroke-miterlimit="10"/>
<path d="M172.095 97.421L113.658 110.801L154.464 66.8843" stroke="#DABBA6" stroke-width="0.831067" stroke-miterlimit="10"/>
<path d="M154.464 165.973L113.658 122.055L172.095 135.436" stroke="#DABBA6" stroke-width="0.831067" stroke-miterlimit="10"/>
<path d="M86.2819 184.98L103.912 127.683L121.542 184.98" stroke="#DABBA6" stroke-width="0.831067" stroke-miterlimit="10"/>
<path d="M35.7285 135.436L94.1659 122.055L53.3593 165.973" stroke="#DABBA6" stroke-width="0.831067" stroke-miterlimit="10"/>
<path d="M53.3593 66.8843L94.1659 110.801L35.7285 97.421" stroke="#DABBA6" stroke-width="0.831067" stroke-miterlimit="10"/>
<path d="M103.911 65.6655C94.9935 63.2687 87.9106 55.7691 86.5133 46.0501C84.778 33.983 92.4172 22.7292 103.911 19.6609C115.407 22.7292 123.045 33.9818 121.31 46.0501C119.912 55.7691 112.829 63.2687 103.911 65.6655Z" stroke="#DABBA6" stroke-width="0.831067" stroke-miterlimit="10" stroke-dasharray="2.22 2.22"/>
<path d="M147.874 91.0474C145.49 82.1262 148.443 72.242 156.162 66.1719C165.745 58.6358 179.31 59.6242 187.715 68.0446C190.806 79.5332 184.88 91.7754 173.56 96.3064C164.444 99.9564 154.408 97.5718 147.874 91.0474Z" stroke="#DABBA6" stroke-width="0.831067" stroke-miterlimit="10" stroke-dasharray="2.22 2.22"/>
<path d="M147.874 141.81C154.408 135.286 164.444 132.901 173.56 136.55C184.878 141.081 190.804 153.323 187.715 164.812C179.31 173.232 165.745 174.222 156.162 166.684C148.443 160.615 145.49 150.731 147.874 141.81Z" stroke="#DABBA6" stroke-width="0.831067" stroke-miterlimit="10" stroke-dasharray="2.22 2.22"/>
<path d="M103.911 167.191C112.829 169.588 119.912 177.087 121.31 186.806C123.045 198.873 115.406 210.127 103.911 213.195C92.4161 210.127 84.7781 198.875 86.5133 186.806C87.9106 177.087 94.9935 169.588 103.911 167.191Z" stroke="#DABBA6" stroke-width="0.831067" stroke-miterlimit="10" stroke-dasharray="2.22 2.22"/>
<path d="M59.95 141.81C62.3335 150.731 59.3805 160.615 51.6615 166.685C42.0787 174.222 28.5135 173.233 20.1086 164.813C17.0182 153.324 22.9442 141.082 34.2634 136.551C43.3785 132.901 53.4156 135.286 59.95 141.81Z" stroke="#DABBA6" stroke-width="0.831067" stroke-miterlimit="10" stroke-dasharray="2.22 2.22"/>
<path d="M59.95 91.0474C53.4156 97.5718 43.3796 99.9564 34.2634 96.3074C22.9453 91.7765 17.0193 79.5343 20.1086 68.0456C28.5135 59.6252 42.0787 58.6357 51.6615 66.1729C59.3793 72.242 62.3324 82.125 59.95 91.0474Z" stroke="#DABBA6" stroke-width="0.831067" stroke-miterlimit="10" stroke-dasharray="2.22 2.22"/>
<path d="M103.911 84.914C93.0787 83.3372 83.3552 77.6316 76.6679 69.2423C80.5905 79.2284 80.6692 90.5021 76.6191 100.672C69.8365 109.265 60.0343 114.834 49.4255 116.429C60.0355 118.026 69.8376 123.594 76.6191 132.186C80.6692 142.356 80.5905 153.629 76.6679 163.615C83.3552 155.225 93.0787 149.52 103.911 147.943C114.744 149.52 124.468 155.226 131.155 163.615C127.232 153.629 127.154 142.355 131.204 132.186C137.986 123.593 147.788 118.025 158.397 116.429C147.787 114.832 137.985 109.264 131.204 100.672C127.154 90.5021 127.232 79.2295 131.155 69.2423C124.468 77.6316 114.744 83.3361 103.911 84.914ZM70.3462 58.2921C69.1639 55.2781 68.3073 52.0802 67.8264 48.7371C64.4767 25.4317 80.626 3.82065 103.911 0.419922C127.197 3.82065 143.347 25.4317 139.996 48.7371C139.515 52.0813 138.66 55.2781 137.477 58.2921C139.495 55.7601 141.837 53.421 144.492 51.3322C162.999 36.7775 189.791 39.9588 204.377 58.424C213.076 80.2899 202.435 105.082 180.577 113.833C177.441 115.088 174.244 115.946 171.042 116.428C174.243 116.911 177.44 117.768 180.577 119.023C202.435 127.774 213.076 152.565 204.377 174.432C189.789 192.898 162.999 196.079 144.492 181.524C141.837 179.435 139.495 177.096 137.477 174.564C138.659 177.578 139.515 180.776 139.996 184.119C143.347 207.424 127.197 229.035 103.911 232.436C80.626 229.035 64.4756 207.424 67.8264 184.119C68.3073 180.775 69.1628 177.578 70.3462 174.564C68.3273 177.096 65.9859 179.435 63.3309 181.524C44.8236 196.079 18.0333 192.897 3.4453 174.432C-5.2532 152.566 5.38779 127.774 27.246 119.023C30.3819 117.768 33.5787 116.91 36.7811 116.428C33.5798 115.945 30.3819 115.088 27.246 113.833C5.38779 105.082 -5.2532 80.291 3.4453 58.424C18.0333 39.9577 44.8236 36.7775 63.3309 51.3322C65.987 53.4199 68.3273 55.7601 70.3462 58.2921Z" stroke="#DABBA6" stroke-width="0.831067" stroke-miterlimit="10" stroke-dasharray="2.22 2.22"/>
<path d="M38.812 79.3193V154.49L103.911 192.075L169.011 154.49V79.3193L103.911 41.7351L38.812 79.3193Z" stroke="#DABBA6" stroke-width="1.10809" stroke-miterlimit="10"/>
</svg>
