<svg width="181" height="181" viewBox="0 0 181 181" fill="none" xmlns="http://www.w3.org/2000/svg">
<path d="M34.9084 58.211V121.885L90.0524 153.723L145.196 121.885V58.211L90.0524 26.3738L34.9084 58.211Z" stroke="#DABBA6" stroke-width="0.829569" stroke-miterlimit="10"/>
<path d="M135.072 135.073C159.939 110.206 159.939 69.8903 135.073 45.0242C110.206 20.158 69.8903 20.158 45.0242 45.0242C20.158 69.8903 20.158 110.206 45.0242 135.073C69.8903 159.939 110.206 159.939 135.072 135.073Z" stroke="#DABBA6" stroke-width="0.829569" stroke-miterlimit="10"/>
<path d="M102.531 119.382C118.736 112.48 126.279 93.7484 119.377 77.5428C112.476 61.3372 93.7438 53.7947 77.5382 60.6961C61.3326 67.5976 53.7901 86.3297 60.6916 102.535C67.593 118.741 86.325 126.283 102.531 119.382Z" stroke="#DABBA6" stroke-width="0.829569" stroke-miterlimit="10"/>
<path d="M111.831 93.6703C113.827 81.6518 105.703 70.2903 93.6849 68.2935C81.6664 66.2967 70.3049 74.4209 68.3081 86.4393C66.3113 98.4577 74.4355 109.819 86.4539 111.816C98.4723 113.813 109.834 105.689 111.831 93.6703Z" stroke="#DABBA6" stroke-width="0.622177" stroke-miterlimit="10" stroke-dasharray="1.66 1.66"/>
<path d="M131.697 96.2468C135.114 73.2365 119.231 51.8125 96.2208 48.395C73.2105 44.9776 51.7865 60.8607 48.369 83.871C44.9516 106.881 60.8347 128.305 83.845 131.723C106.855 135.14 128.279 119.257 131.697 96.2468Z" stroke="#DABBA6" stroke-width="0.622177" stroke-miterlimit="10" stroke-dasharray="1.66 1.66"/>
<path d="M95.5458 103.164C102.787 100.127 106.196 91.7956 103.16 84.5546C100.124 77.3135 91.7917 73.9051 84.5503 76.9416C77.3088 79.9781 73.8999 88.3097 76.9362 95.5508C79.9726 102.792 88.3044 106.2 95.5458 103.164Z" stroke="#DABBA6" stroke-width="0.829569" stroke-miterlimit="10"/>
<path d="M90.0485 58.1544L58.1545 90.0483L90.0485 121.942L121.942 90.0483L90.0485 58.1544Z" stroke="#DABBA6" stroke-width="0.622177" stroke-miterlimit="10"/>
<path d="M90.0524 26.3738V58.1537" stroke="#DABBA6" stroke-width="0.622177" stroke-miterlimit="10"/>
<path d="M145.196 58.2109L117.674 74.1013" stroke="#DABBA6" stroke-width="0.622177" stroke-miterlimit="10"/>
<path d="M145.196 121.885L117.674 105.995" stroke="#DABBA6" stroke-width="0.622177" stroke-miterlimit="10"/>
<path d="M90.0524 153.722V121.943" stroke="#DABBA6" stroke-width="0.622177" stroke-miterlimit="10"/>
<path d="M34.9084 121.885L62.4311 105.995" stroke="#DABBA6" stroke-width="0.622177" stroke-miterlimit="10"/>
<path d="M34.9084 58.2109L62.4311 74.1013" stroke="#DABBA6" stroke-width="0.622177" stroke-miterlimit="10"/>
<path d="M90.0523 35.7968C95.4622 35.7968 99.8478 31.4112 99.8478 26.0012C99.8478 20.5913 95.4622 16.2057 90.0523 16.2057C84.6423 16.2057 80.2567 20.5913 80.2567 26.0012C80.2567 31.4112 84.6423 35.7968 90.0523 35.7968Z" stroke="#DABBA6" stroke-width="0.829569" stroke-miterlimit="10"/>
<path d="M90.0524 41.0928C98.3873 41.0928 105.144 34.3361 105.144 26.0013C105.144 17.6665 98.3873 10.9098 90.0524 10.9098C81.7176 10.9098 74.9609 17.6665 74.9609 26.0013C74.9609 34.3361 81.7176 41.0928 90.0524 41.0928Z" stroke="#DABBA6" stroke-width="0.622177" stroke-miterlimit="10" stroke-dasharray="1.66 1.66"/>
<path d="M94.8232 26.0012C94.8232 28.6359 92.6871 30.7712 90.0532 30.7712C87.4185 30.7712 85.2832 28.6359 85.2832 26.0012C85.2832 23.3665 87.4193 21.2312 90.0532 21.2312C92.6871 21.2304 94.8232 23.3665 94.8232 26.0012Z" stroke="#DABBA6" stroke-width="0.622177" stroke-miterlimit="10"/>
<path d="M154.728 60.4573C155.977 55.1935 152.722 49.9136 147.459 48.6645C142.195 47.4153 136.915 50.6699 135.666 55.9338C134.417 61.1976 137.671 66.4775 142.935 67.7266C148.199 68.9758 153.479 65.7212 154.728 60.4573Z" stroke="#DABBA6" stroke-width="0.829569" stroke-miterlimit="10"/>
<path d="M145.196 73.3025C153.531 73.3025 160.288 66.5458 160.288 58.211C160.288 49.8762 153.531 43.1195 145.196 43.1195C136.861 43.1195 130.105 49.8762 130.105 58.211C130.105 66.5458 136.861 73.3025 145.196 73.3025Z" stroke="#DABBA6" stroke-width="0.622177" stroke-miterlimit="10" stroke-dasharray="1.66 1.66"/>
<path d="M149.967 58.2109C149.967 60.8457 147.832 62.981 145.197 62.981C142.562 62.981 140.427 60.8448 140.427 58.2109C140.427 55.5762 142.562 53.4409 145.197 53.4409C147.831 53.4401 149.967 55.5762 149.967 58.2109Z" stroke="#DABBA6" stroke-width="0.622177" stroke-miterlimit="10"/>
<path d="M150.094 130.368C145.409 133.074 139.418 131.468 136.713 126.783C134.008 122.098 135.613 116.107 140.298 113.402C144.984 110.697 150.974 112.302 153.679 116.987C156.385 121.673 154.779 127.663 150.094 130.368Z" stroke="#DABBA6" stroke-width="0.829569" stroke-miterlimit="10"/>
<path d="M145.972 136.959C154.295 136.522 160.688 129.42 160.25 121.097C159.812 112.773 152.71 106.381 144.387 106.819C136.064 107.256 129.672 114.358 130.109 122.681C130.547 131.004 137.649 137.397 145.972 136.959Z" stroke="#DABBA6" stroke-width="0.622177" stroke-miterlimit="10" stroke-dasharray="1.66 1.66"/>
<path d="M147.582 126.017C145.301 127.334 142.383 126.552 141.066 124.27C139.748 121.989 140.53 119.071 142.812 117.754C145.093 116.437 148.011 117.218 149.328 119.5C150.645 121.782 149.863 124.699 147.582 126.017Z" stroke="#DABBA6" stroke-width="0.622177" stroke-miterlimit="10"/>
<path d="M90.2559 163.535C95.6648 163.421 99.9565 158.943 99.8418 153.534C99.7272 148.125 95.2494 143.833 89.8406 143.948C84.4317 144.063 80.14 148.54 80.2547 153.949C80.3694 159.358 84.8471 163.65 90.2559 163.535Z" stroke="#DABBA6" stroke-width="0.829569" stroke-miterlimit="10"/>
<path d="M100.132 164.941C106.341 159.38 106.866 149.839 101.305 143.63C95.7441 137.421 86.203 136.896 79.9943 142.457C73.7857 148.018 73.2608 157.56 78.8217 163.768C84.3827 169.977 93.9239 170.502 100.132 164.941Z" stroke="#DABBA6" stroke-width="0.622177" stroke-miterlimit="10" stroke-dasharray="1.66 1.66"/>
<path d="M87.6673 157.854C85.386 156.537 84.6037 153.619 85.9211 151.338C87.2384 149.056 90.156 148.274 92.4373 149.591C94.7186 150.909 95.5009 153.826 94.1836 156.108C92.8662 158.39 89.9486 159.171 87.6673 157.854Z" stroke="#DABBA6" stroke-width="0.622177" stroke-miterlimit="10"/>
<path d="M44.4438 124.134C45.693 118.87 42.4384 113.59 37.1745 112.341C31.9107 111.092 26.6308 114.346 25.3817 119.61C24.1325 124.874 27.3871 130.154 32.651 131.403C37.9148 132.652 43.1946 129.398 44.4438 124.134Z" stroke="#DABBA6" stroke-width="0.829569" stroke-miterlimit="10"/>
<path d="M34.9084 136.977C43.2432 136.977 49.9999 130.22 49.9999 121.885C49.9999 113.551 43.2432 106.794 34.9084 106.794C26.5736 106.794 19.8169 113.551 19.8169 121.885C19.8169 130.22 26.5736 136.977 34.9084 136.977Z" stroke="#DABBA6" stroke-width="0.622177" stroke-miterlimit="10" stroke-dasharray="1.66 1.66"/>
<path d="M30.1384 121.885C30.1384 119.251 32.2737 117.115 34.9084 117.115C37.5432 117.115 39.6785 119.251 39.6785 121.885C39.6785 124.52 37.5432 126.655 34.9084 126.655C32.2737 126.655 30.1384 124.52 30.1384 121.885Z" stroke="#DABBA6" stroke-width="0.622177" stroke-miterlimit="10"/>
<path d="M43.2759 63.3241C46.0988 58.7089 44.6458 52.6791 40.0306 49.8562C35.4154 47.0332 29.3856 48.4862 26.5627 53.1014C23.7398 57.7166 25.1928 63.7464 29.808 66.5693C34.4232 69.3922 40.453 67.9393 43.2759 63.3241Z" stroke="#DABBA6" stroke-width="0.829569" stroke-miterlimit="10"/>
<path d="M27.3627 45.1411C34.5807 40.9733 43.8105 43.4471 47.9783 50.6652C52.146 57.8833 49.6723 67.113 42.4542 71.2808C35.2361 75.4485 26.0063 72.9748 21.8386 65.7567C17.6716 58.5386 20.1446 49.3088 27.3627 45.1411Z" stroke="#DABBA6" stroke-width="0.622177" stroke-miterlimit="10" stroke-dasharray="1.66 1.66"/>
<path d="M32.5235 54.0798C34.8048 52.7625 37.7224 53.5439 39.0398 55.826C40.3571 58.1074 39.5757 61.025 37.2935 62.3423C35.0122 63.6597 32.0946 62.8782 30.7773 60.5961C29.4599 58.3148 30.2422 55.3972 32.5235 54.0798Z" stroke="#DABBA6" stroke-width="0.622177" stroke-miterlimit="10"/>
</svg>
