<svg width="197" height="122" viewBox="0 0 197 122" fill="none" xmlns="http://www.w3.org/2000/svg">
<path d="M98.3229 187.772C75.8615 174.314 53.0633 161.426 30.9641 147.368C31.1473 147.687 31.3305 148.006 31.5126 148.325C30.9409 122.14 31.7305 95.9623 31.8558 69.7784C31.6726 70.0974 31.4894 70.4164 31.3073 70.7353C53.9718 57.6234 76.3016 43.9398 99.3167 31.4342C98.943 31.4342 98.5703 31.4342 98.1977 31.4342C121.052 44.2272 143.209 58.1898 165.707 71.5859C165.524 71.267 165.341 70.948 165.159 70.629C164.955 96.8118 165.415 122.998 164.515 149.173C164.699 148.854 164.882 148.535 165.064 148.216C142.79 161.997 119.831 174.597 97.2028 187.773C97.6513 188.353 98.0997 188.934 98.545 189.514C98.5471 189.513 98.5471 189.513 98.5471 189.513C99.5588 188.502 97.9924 186.934 96.9807 187.946C96.9786 187.946 96.9786 187.947 96.9786 187.947C96.0837 188.841 97.2291 190.324 98.3208 189.688C118.155 178.14 138.228 167.02 157.896 155.188C160.464 153.642 163.024 152.082 165.573 150.508C167.67 149.213 166.852 145.497 166.912 143.297C167.091 136.679 167.19 130.06 167.258 123.44C167.391 110.775 167.383 98.1099 167.365 85.4453C167.359 81.1059 167.346 76.7665 167.365 72.4271C167.371 70.7048 167.47 70.0584 165.932 69.1394C164.293 68.1603 162.664 67.1718 161.031 66.1833C151.157 60.1995 141.302 54.1841 131.4 48.2455C125.588 44.7599 119.76 41.3016 113.909 37.8823C111.199 36.2979 108.481 34.7272 105.756 33.166C104.455 32.4207 103.151 31.6795 101.845 30.9416C101.008 30.4689 99.4988 29.1245 98.4629 29.4098C95.9647 30.0973 93.3119 32.1964 91.0463 33.4566C88.0565 35.1199 85.0794 36.8022 82.1064 38.4929C76.2132 41.8427 70.3494 45.2389 64.494 48.6519C54.6961 54.3662 44.9445 60.1595 35.1687 65.9127C33.7086 66.7717 32.2474 67.6297 30.7809 68.4803C29.2492 69.371 29.6376 70.7711 29.6229 72.3797C29.5818 76.8792 29.5103 81.3786 29.4482 85.878C29.2692 98.6583 29.1133 111.439 29.0902 124.22C29.0797 130.795 29.1102 137.372 29.2134 143.947C29.2355 145.407 29.265 146.867 29.2976 148.326C29.3176 149.25 30.4061 149.639 31.0598 150.054C33.8254 151.809 36.6078 153.541 39.3934 155.262C58.4786 167.054 77.9649 178.16 97.206 189.688C98.4335 190.423 99.5462 188.505 98.3229 187.772Z" fill="#AF9B64" fill-opacity="0.5"/>
<path d="M58.9462 177.173C46.3154 154.237 33.1066 131.621 21.0905 108.348C21.0905 108.72 21.0905 109.094 21.0905 109.467C33.7814 86.5549 47.6419 64.3346 60.9349 41.7753C60.6159 41.9585 60.2969 42.1417 59.979 42.3249C86.1618 42.4091 112.345 41.8269 138.525 42.6101C138.206 42.427 137.886 42.2438 137.567 42.0606C150.873 64.6209 162.987 87.8403 175.68 110.743C175.68 110.37 175.68 109.997 175.68 109.624C162.323 132.145 149.538 155 135.579 177.163C135.898 176.979 136.217 176.796 136.535 176.614C110.354 177.306 84.1732 176.636 57.9882 176.625C57.9882 177.364 57.9882 178.103 57.9882 178.841H57.9903C59.4189 178.841 59.4189 176.625 57.9903 176.625H57.9882C56.5597 176.625 56.5597 178.841 57.9882 178.841C80.937 178.85 103.88 179.349 126.83 179.026C129.829 178.984 132.824 178.924 135.82 178.848C138.287 178.786 139.447 175.165 140.609 173.293C144.096 167.666 147.514 161.996 150.906 156.311C157.397 145.436 163.765 134.488 170.127 123.538C172.306 119.786 174.482 116.031 176.68 112.289C177.558 110.798 177.961 110.289 177.089 108.711C176.168 107.041 175.258 105.365 174.345 103.689C168.826 93.5472 163.341 83.3872 157.775 73.2714C154.508 67.3339 151.214 61.4111 147.881 55.5105C146.337 52.7776 144.781 50.051 143.211 47.3307C142.463 46.0316 141.708 44.7346 140.952 43.4397C140.469 42.6123 139.85 40.7142 138.822 40.431C136.337 39.7477 132.946 40.2415 130.365 40.1899C126.946 40.1215 123.527 40.0762 120.105 40.0393C113.328 39.9667 106.551 39.9478 99.7738 39.9499C88.4305 39.953 77.0882 40.0488 65.747 40.0983C64.0531 40.1057 62.3582 40.1099 60.6643 40.1078C58.8873 40.1057 58.522 41.5079 57.6998 42.8912C55.3964 46.758 53.0708 50.61 50.7516 54.4651C44.1614 65.4168 37.5923 76.3812 31.1379 87.4139C27.8197 93.0903 24.5341 98.7878 21.3116 104.52C20.5958 105.793 19.8862 107.069 19.1798 108.346C18.7313 109.157 19.4841 110.051 19.842 110.742C21.3474 113.65 22.8791 116.547 24.4193 119.437C34.971 139.233 46.2164 158.642 57.0366 178.289C57.7229 179.544 59.6368 178.426 58.9462 177.173Z" fill="#AF9B64" fill-opacity="0.5"/>
<path d="M98.1671 30.8037C97.5775 32.7312 96.0731 34.663 95.0846 36.3948C92.4643 40.99 89.8061 45.5631 87.1501 50.1363C79.425 63.4345 71.6495 76.7034 63.8739 89.9711C52.5684 109.259 40.3397 128.252 29.8491 147.999C29.6228 148.427 29.9039 148.963 30.4039 148.966C75.4025 149.285 120.404 149.276 165.404 149.42C165.901 149.422 166.165 148.888 165.948 148.471C155.65 128.621 143.629 109.501 132.52 90.0964C124.879 76.7497 117.244 63.3998 109.654 50.0247C107.125 45.5684 104.599 41.109 102.101 36.6348C101.082 34.8093 99.463 32.667 98.8798 30.6858C98.665 29.9551 97.5227 30.2657 97.7385 31.0005C98.3281 33.006 99.8304 34.9967 100.834 36.8022C103.536 41.6638 106.281 46.5011 109.022 51.3406C117.17 65.7158 125.371 80.0616 133.574 94.4063C141.34 107.986 149.117 121.559 156.888 135.135C159.103 139.006 161.321 142.876 163.529 146.751C163.948 147.486 164.368 148.219 164.778 148.957C164.365 148.213 166.142 148.162 164.138 148.154C137.027 148.053 109.916 147.952 82.8043 147.851C68.6386 147.798 54.4729 147.745 40.3071 147.692C37.1784 147.68 34.0517 147.68 30.924 147.68C29.9144 147.682 30.7534 149.003 31.2177 148.183C31.8136 147.129 32.42 146.081 33.0232 145.032C45.2719 123.731 57.5942 102.471 69.8566 81.1775C76.5447 69.5647 83.2275 57.9487 89.864 46.3053C92.5643 41.568 96.8806 36.1642 98.4524 30.8826C98.5081 30.6994 98.2229 30.6215 98.1671 30.8037Z" fill="#AF9B64" fill-opacity="0.5"/>
<path d="M98.0461 188.962C98.6198 187.054 100.135 185.132 101.115 183.423C103.727 178.869 106.379 174.338 109.028 169.806C116.75 156.6 124.523 143.425 132.297 130.251C143.758 110.83 156.32 91.7208 166.82 71.7586C167.045 71.3301 166.767 70.7985 166.266 70.7932C121.091 70.2816 75.909 70.0963 30.7315 69.7626C30.2346 69.7594 29.9703 70.2953 30.1872 70.7111C40.7578 90.9743 52.7665 110.603 64.0446 130.477C75.1573 150.061 86.2785 169.64 97.3924 189.223C97.7682 189.887 98.7915 189.29 98.4146 188.626C86.6049 167.815 74.811 146.996 63.0139 126.178C55.2668 112.506 47.5186 98.8341 39.7809 85.1569C37.4891 81.1059 35.1972 77.0549 32.9127 72.9998C32.4274 72.1386 31.9411 71.2775 31.461 70.4132C31.3189 70.1584 30.163 71.0196 31.58 71.0301C58.0565 71.2417 84.5341 71.4522 111.011 71.6638C125.549 71.7796 140.085 71.8955 154.624 72.0113C158.157 72.0397 161.69 72.0586 165.223 72.0734C167.014 72.0807 165.238 71.9723 165.632 71.2606C165.171 72.0913 164.689 72.9103 164.213 73.7325C151.984 94.9106 139.637 116.021 127.367 137.177C120.457 149.092 113.55 161.011 106.692 172.958C103.898 177.826 99.3557 183.439 97.7608 188.885C97.7071 189.066 97.9913 189.143 98.0461 188.962Z" fill="#AF9B64" fill-opacity="0.5"/>
<path d="M30.4241 148.395C36.4774 146.261 43.5834 145.737 49.8599 144.529C63.6298 141.878 77.4071 139.264 91.1854 136.651C111.358 132.826 131.746 129.595 151.793 125.144C152.005 125.097 152.093 124.836 151.991 124.658C138.738 101.482 125.484 78.3067 112.231 55.1315C112.132 54.9589 111.871 54.9168 111.732 55.0673C97.7745 70.1668 84.6362 86.1075 71.1127 101.594C61.878 112.169 52.6412 122.741 43.3792 133.29C39.1598 138.095 35.1067 143.977 30.1956 148.115C29.904 148.362 30.3251 148.778 30.6146 148.533C36.9869 143.164 42.2401 135.497 47.7133 129.26C58.9187 116.489 70.0968 103.692 81.2727 90.8933C90.28 80.5795 99.2799 70.2584 108.29 59.9478C109.275 58.8225 110.26 57.696 111.246 56.5717C111.493 56.2906 111.74 56.0106 111.987 55.7305C112.295 55.3821 111.573 55.26 111.822 55.6969C113.877 59.293 115.932 62.8903 117.988 66.4864C126.05 80.5953 134.112 94.7042 142.175 108.813C144.915 113.61 147.657 118.407 150.398 123.203C151.109 124.445 151.103 124.611 151.522 124.523C150.598 124.716 149.669 124.886 148.742 125.064C119.787 130.65 90.8369 136.258 61.897 141.922C54.6004 143.349 47.3049 144.781 40.0146 146.238C36.8932 146.862 33.397 147.174 30.3851 148.251C30.2956 148.285 30.3336 148.428 30.4241 148.395Z" fill="#AF9B64" fill-opacity="0.5"/>
<path d="M121.114 148.634C115.525 142.188 107.792 136.856 101.385 131.267C88.5166 120.041 75.6278 108.837 62.7401 97.634C53.0485 89.21 43.297 80.8564 33.5896 72.4513C32.7916 71.7607 31.9926 71.0701 31.1988 70.3742C30.9725 70.1763 30.6293 70.7311 31.9358 71.1154C36.1404 72.3492 40.3882 73.4462 44.6213 74.5789C63.3686 79.5931 82.1475 84.4926 100.92 89.41C112.74 92.5061 124.969 94.9832 136.585 98.7994C136.949 98.9194 137.104 98.3467 136.743 98.2288C119.846 92.6788 102.06 89.0815 84.8678 84.5621C72.7728 81.3818 60.6789 78.1993 48.5955 74.9779C42.9696 73.4788 36.1878 72.625 30.8957 70.1111C30.5809 69.9616 30.2166 70.3564 30.504 70.6195C45.2046 84.0894 60.7294 96.7571 75.8563 109.743C86.031 118.477 96.2048 127.215 106.362 135.972C111.125 140.08 116.844 143.995 121.011 148.739C121.073 148.811 121.176 148.707 121.114 148.634Z" fill="#AF9B64" fill-opacity="0.5"/>
<path d="M75.4247 148.483C79.4083 143.979 84.97 140.304 89.5505 136.446C99.9716 127.665 110.417 118.909 120.861 110.153C136.068 97.4045 151.813 85.0569 166.495 71.6975C166.784 71.4343 166.418 71.0438 166.103 71.1901C161.072 73.5314 154.405 74.1052 149.046 75.3695C136.974 78.2172 124.891 81.0143 112.808 83.8125C101.083 86.5276 89.3567 89.2331 77.6323 91.9481C71.998 93.2525 66.0984 94.2021 60.5799 95.9528C60.2178 96.0675 60.3736 96.6392 60.7379 96.5234C69.5757 93.7189 79.0514 92.2355 88.0776 90.1532C104.717 86.3149 121.358 82.484 137.99 78.6109C147.235 76.458 157.389 75.1232 166.309 71.8018C166.227 71.8323 166.184 71.1196 165.691 71.5428C165.358 71.8302 165.022 72.1144 164.687 72.3987C163.305 73.5725 161.92 74.7421 160.536 75.9117C155.88 79.8447 151.218 83.7725 146.559 87.7014C131.535 100.366 116.565 113.094 101.599 125.828C95.5068 131.011 89.4157 136.198 83.3403 141.404C80.7284 143.641 77.5913 145.778 75.3205 148.378C75.2573 148.45 75.3605 148.554 75.4247 148.483Z" fill="#AF9B64" fill-opacity="0.5"/>
<path d="M165.424 148.718C157.648 145.934 148.472 145.24 140.4 143.652C123.829 140.39 107.25 137.167 90.6707 133.944C77.1619 131.319 63.6572 128.677 50.1431 126.079C48.6124 125.784 47.0828 125.49 45.5522 125.194C44.2236 124.936 44.3583 124.958 44.2067 125.22C46.1806 121.82 48.1555 118.42 50.1294 115.02C58.284 100.975 66.4396 86.9307 74.5942 72.8871C77.4629 67.9476 80.3306 63.007 83.1994 58.0665C84.65 55.5694 83.7163 55.7705 85.6312 57.9623C104.89 80.011 124.059 102.14 143.315 124.192C148.412 130.028 153.511 135.862 158.633 141.678C160.734 144.064 162.754 146.939 165.196 148.999C165.485 149.244 165.907 148.827 165.615 148.582C160.716 144.45 156.681 138.564 152.478 133.763C143.248 123.22 134.047 112.65 124.847 102.081C111.375 86.6033 98.3094 70.6373 84.3753 55.5726C84.2363 55.421 83.9763 55.4652 83.8763 55.6368C70.4348 78.7666 56.9944 101.897 43.554 125.025C43.4498 125.203 43.5403 125.465 43.7519 125.513C63.672 129.938 83.9279 133.162 103.972 136.97C117.756 139.588 131.538 142.21 145.314 144.865C151.794 146.115 159.137 146.656 165.386 148.862C165.476 148.893 165.514 148.75 165.424 148.718Z" fill="#AF9B64" fill-opacity="0.5"/>
<path d="M98.0809 30.8236C96.8966 37.0433 93.7531 43.3776 91.6434 49.3172C86.8639 62.7724 82.0455 76.2138 77.226 89.6553C70.2347 109.151 62.6087 128.529 56.2332 148.235C56.1669 148.443 56.3448 148.654 56.5532 148.655C84.1215 148.806 111.69 148.956 139.257 149.107C139.457 149.108 139.626 148.903 139.563 148.705C133.266 128.924 125.79 109.448 118.922 89.8616C114.276 76.6128 109.635 63.3619 105.025 50.1004C102.865 43.8893 99.6337 37.2601 98.4389 30.7647C98.3704 30.3899 97.7998 30.5489 97.8672 30.9215C99.3568 39.0224 103.415 47.3012 106.11 55.0484C111.671 71.0322 117.27 87.0034 122.869 102.975C127.48 116.125 132.099 129.273 136.706 142.426C137.245 143.966 137.784 145.507 138.321 147.048C138.745 148.267 138.698 148.47 139.186 148.473C135.541 148.451 131.894 148.43 128.248 148.409C112.021 148.315 95.7954 148.221 79.5683 148.127C73.2792 148.09 66.9912 148.054 60.7021 148.017C59.4115 148.01 58.1219 148.002 56.8312 147.995C56.3038 147.992 56.8428 148.498 56.9302 148.244C57.0607 147.863 57.1965 147.483 57.3312 147.101C66.7375 120.49 76.1954 93.8968 85.5785 67.277C88.5662 58.8024 91.5497 50.3268 94.5047 41.8417C95.7344 38.3097 97.5387 34.5588 98.2241 30.8636C98.2409 30.7699 98.0988 30.7299 98.0809 30.8236Z" fill="#AF9B64" fill-opacity="0.5"/>
<path d="M98.4294 30.8436C98.4294 30.8436 98.4525 33.3134 98.4957 37.6359C98.5347 41.9585 98.6168 48.1329 98.6242 55.5431C98.6494 62.9524 98.6789 71.5975 98.7105 80.8595C98.7263 85.4906 98.7421 90.2764 98.7589 95.139C98.7526 100.002 98.7473 104.942 98.741 109.882C98.6905 129.642 98.641 149.402 98.6031 164.221C98.4979 179.042 98.4294 188.921 98.4294 188.921C98.4273 189.073 98.3031 189.197 98.1494 189.195C97.9988 189.194 97.8756 189.071 97.8735 188.921C97.8735 188.921 97.8051 179.041 97.6999 164.221C97.662 149.402 97.6125 129.642 97.562 109.882C97.5556 104.942 97.5504 100.002 97.544 95.139C97.5609 90.2764 97.5767 85.4906 97.5925 80.8595C97.6241 71.5975 97.6535 62.9524 97.6788 55.5431C97.6861 48.1329 97.7683 41.9585 97.8072 37.6359C97.8493 33.3134 97.8735 30.8436 97.8735 30.8436C97.8756 30.6899 98.0009 30.5678 98.1546 30.5689C98.3062 30.5699 98.4273 30.6931 98.4294 30.8436Z" fill="#AF9B64" fill-opacity="0.5"/>
<path d="M30.2661 148.084C30.2661 148.084 47.2037 138.354 64.1413 128.624C72.6233 123.782 81.1053 118.941 87.4671 115.311C93.8425 111.704 98.0924 109.3 98.0924 109.3C98.2261 109.225 98.3945 109.271 98.4703 109.405C98.544 109.536 98.4988 109.705 98.3672 109.781C98.3672 109.781 94.1383 112.224 87.7966 115.89C81.4411 119.531 72.9665 124.385 64.4919 129.241C47.5164 138.903 30.5409 148.566 30.5409 148.566C30.4072 148.642 30.2387 148.595 30.1629 148.462C30.0882 148.328 30.1335 148.16 30.2661 148.084Z" fill="#AF9B64" fill-opacity="0.5"/>
<path d="M98.3705 109.3C98.3705 109.3 99.4622 109.842 101.337 110.849C103.223 111.839 105.902 113.277 109.087 115.055C110.68 115.942 112.422 116.876 114.234 117.917C116.049 118.954 117.961 120.047 119.94 121.179C123.896 123.445 128.068 125.944 132.258 128.411C136.438 130.897 140.648 133.33 144.541 135.703C148.442 138.061 152.085 140.262 155.206 142.148C158.312 144.062 160.899 145.658 162.711 146.775C164.514 147.906 165.544 148.552 165.544 148.552C165.674 148.633 165.712 148.805 165.631 148.934C165.554 149.058 165.392 149.1 165.264 149.03C165.264 149.03 164.194 148.45 162.325 147.434C160.463 146.405 157.802 144.933 154.61 143.168C151.434 141.374 147.729 139.283 143.758 137.04C139.78 134.814 135.592 132.341 131.375 129.92C127.169 127.48 122.944 125.073 119.027 122.74C117.07 121.571 115.179 120.441 113.385 119.37C111.588 118.304 109.919 117.243 108.363 116.292C105.251 114.389 102.682 112.761 100.894 111.604C99.0958 110.465 98.0883 109.781 98.0883 109.781C97.962 109.693 97.9293 109.521 98.0157 109.394C98.0967 109.276 98.2484 109.238 98.3705 109.3Z" fill="#AF9B64" fill-opacity="0.5"/>
<path d="M98.0947 109.297C98.0947 109.297 99.1327 108.657 100.95 107.536C102.778 106.439 105.402 104.891 108.583 103.088C110.164 102.172 111.911 101.239 113.74 100.22C115.584 99.2257 117.528 98.1783 119.54 97.095C121.553 96.0128 123.637 94.9021 125.725 93.722C127.823 92.5587 129.95 91.368 132.03 90.0963C136.187 87.5466 140.303 84.9221 144.333 82.765C148.347 80.5837 152.059 78.4835 155.304 76.7959C158.531 75.0768 161.23 73.6609 163.135 72.7018C165.042 71.7407 166.13 71.1922 166.13 71.1922C166.267 71.1238 166.435 71.1785 166.503 71.3153C166.568 71.4448 166.522 71.6006 166.401 71.6754C166.401 71.6754 165.364 72.3176 163.549 73.4408C161.734 74.5652 159.117 76.1264 155.966 77.9803C152.832 79.8647 149.102 81.9323 145.145 84.2167C141.2 86.5244 136.813 88.6635 132.466 90.8764C130.294 91.9871 128.168 93.1777 126.081 94.3589C123.984 95.5232 121.948 96.7202 119.974 97.8709C117.999 99.0205 116.09 100.131 114.281 101.184C112.455 102.211 110.748 103.214 109.139 104.083C105.941 105.853 103.249 107.281 101.357 108.268C99.4527 109.231 98.3653 109.782 98.3653 109.782C98.2284 109.851 98.061 109.796 97.9926 109.659C97.9284 109.529 97.9747 109.372 98.0947 109.297Z" fill="#AF9B64" fill-opacity="0.5"/>
<path d="M98.0915 109.779C98.0915 109.779 96.9882 109.25 95.087 108.275C94.1437 107.773 93.0004 107.165 91.6876 106.467C90.3717 105.773 88.9126 104.949 87.3198 104.05C84.1384 102.246 80.4685 100.066 76.5144 97.7709C72.5655 95.4665 68.3535 93.0094 64.1415 90.5512C59.94 88.0751 55.7385 85.5991 51.7981 83.2778C47.8671 80.9438 44.1962 78.7657 41.0506 76.8992C34.7752 73.1388 30.5916 70.6311 30.5916 70.6311C30.46 70.5522 30.4179 70.3827 30.4958 70.2511C30.5726 70.1216 30.739 70.0785 30.8685 70.1521C30.8685 70.1521 35.1226 72.5387 41.5033 76.1181C44.6857 77.9214 48.3987 80.0248 52.3771 82.2787C56.347 84.5453 60.5832 86.9634 64.8184 89.3805C69.0441 91.8166 73.2688 94.2516 77.2303 96.535C81.1865 98.8268 84.8995 100.93 88.0451 102.796C89.6158 103.733 91.057 104.59 92.313 105.386C93.5699 106.179 94.6669 106.871 95.5712 107.439C97.3609 108.605 98.3673 109.301 98.3673 109.301C98.4937 109.387 98.5252 109.561 98.4378 109.687C98.361 109.801 98.2126 109.836 98.0915 109.779Z" fill="#AF9B64" fill-opacity="0.5"/>
<path d="M100.535 11.0679C88.7968 8.35494 76.3618 20.3194 78.8547 32.1649C78.9989 32.8502 80.1117 32.8629 80.2465 32.1649C81.2897 26.7675 82.2793 22.1133 86.0418 17.8802C89.6759 13.7913 95.3302 12.3627 100.535 11.6037C100.811 11.5627 100.789 11.1268 100.535 11.0679Z" fill="#AF9B64" fill-opacity="0.5"/>
<path d="M97.0344 11.692C102.32 12.8142 107.379 14.1954 111.262 18.1695C115.119 22.1194 115.771 27.1663 117.115 32.2279C117.363 33.1575 118.715 33.1364 118.973 32.2279C122.312 20.4287 108.586 7.52311 97.0355 10.9782C96.7007 11.0782 96.6627 11.613 97.0344 11.692Z" fill="#AF9B64" fill-opacity="0.5"/>
<path d="M100.559 49.2613C95.2732 48.1391 90.2147 46.7579 86.3311 42.7838C82.4739 38.835 81.8222 33.787 80.4779 28.7254C80.2305 27.7959 78.8798 27.8169 78.6209 28.7254C75.2816 40.5246 89.0073 53.4302 100.558 49.9751C100.893 49.8751 100.931 49.3414 100.559 49.2613Z" fill="#AF9B64" fill-opacity="0.5"/>
<path d="M97.0343 49.9751C108.585 53.4302 122.311 40.5246 118.971 28.7254C118.713 27.8169 117.363 27.7959 117.114 28.7254C115.728 33.9502 114.949 38.5528 111.261 42.7838C107.682 46.8895 102.131 48.1791 97.0333 49.2613C96.6627 49.3414 96.7006 49.8751 97.0343 49.9751Z" fill="#AF9B64" fill-opacity="0.5"/>
<path d="M101.428 0.494096C83.8806 -3.2063 64.6912 14.5125 68.5706 32.5218C68.7664 33.4292 70.2518 33.4566 70.4276 32.5218C71.894 24.7062 73.1037 17.8918 78.3716 11.5785C84.0101 4.82088 92.8911 2.21639 101.33 1.22049C101.712 1.17628 101.87 0.587791 101.428 0.494096Z" fill="#AF9B64" fill-opacity="0.5"/>
<path d="M96.2648 1.22159C104.966 2.24802 113.216 4.96937 119.223 11.5796C124.673 17.577 125.74 24.9126 127.167 32.5229C127.343 33.4577 128.827 33.4303 129.024 32.5229C132.905 14.5136 113.714 -3.20521 96.1669 0.495195C95.7237 0.587836 95.8827 1.17632 96.2648 1.22159Z" fill="#AF9B64" fill-opacity="0.5"/>
<path d="M101.329 58.7583C92.6277 57.7308 84.3773 55.0105 78.3703 48.4014C72.9203 42.4039 71.8549 35.0683 70.4264 27.4581C70.2505 26.5232 68.7661 26.5506 68.5693 27.4581C64.6899 45.4674 83.8793 63.1851 101.427 59.4857C101.87 59.392 101.712 58.8035 101.329 58.7583Z" fill="#AF9B64" fill-opacity="0.5"/>
<path d="M96.1662 59.4846C113.713 63.184 132.903 45.4663 129.023 27.457C128.828 26.5495 127.342 26.5221 127.166 27.457C125.7 35.2725 124.49 42.087 119.222 48.4003C113.584 55.1578 104.703 57.7623 96.264 58.7572C95.8829 58.8035 95.724 59.392 96.1662 59.4846Z" fill="#AF9B64" fill-opacity="0.5"/>
<path d="M32.4935 51.3796C20.9428 47.9245 7.21703 60.8301 10.5563 72.6292C10.8143 73.5378 12.1649 73.5588 12.4134 72.6292C13.7999 67.4045 14.5789 62.8029 18.2666 58.5709C21.846 54.4652 27.3971 53.1756 32.4945 52.0934C32.8651 52.0144 32.8272 51.4796 32.4935 51.3796Z" fill="#AF9B64" fill-opacity="0.5"/>
<path d="M28.9932 52.0037C34.3959 52.7912 39.547 54.325 43.4863 58.2802C47.4068 62.2154 48.2763 67.3643 49.2817 72.5649C49.4165 73.2629 50.5303 73.2502 50.6735 72.5649C53.1664 60.7194 40.7324 48.755 28.9932 51.4679C28.7395 51.5268 28.7174 51.9637 28.9932 52.0037Z" fill="#AF9B64" fill-opacity="0.5"/>
<path d="M32.4936 89.6626C27.2089 88.5404 22.1494 87.1592 18.2658 83.185C14.4085 79.2351 13.7568 74.1883 12.4125 69.1267C12.1651 68.1971 10.8144 68.2182 10.5555 69.1267C7.21616 80.9259 20.9418 93.8315 32.4926 90.3763C32.8273 90.2763 32.8653 89.7426 32.4936 89.6626Z" fill="#AF9B64" fill-opacity="0.5"/>
<path d="M28.969 90.3763C40.5197 93.8315 54.2454 80.9259 50.9061 69.1267C50.6482 68.2182 49.2975 68.1971 49.049 69.1267C47.6626 74.3515 46.8836 78.953 43.1969 83.185C39.6175 87.2907 34.0664 88.5804 28.969 89.6626C28.5963 89.7426 28.6353 90.2763 28.969 90.3763Z" fill="#AF9B64" fill-opacity="0.5"/>
<path d="M33.337 40.9847C15.5393 37.996 -2.19944 54.8252 0.736666 72.8587C0.847204 73.543 2.03364 73.5588 2.12839 72.8587C3.20324 64.9147 4.70128 57.9771 10.0082 51.6838C15.7004 44.9325 24.735 42.1891 33.2623 41.5301C33.5549 41.5069 33.6644 41.0395 33.337 40.9847Z" fill="#AF9B64" fill-opacity="0.5"/>
<path d="M28.1993 41.5301C37.0003 42.2102 45.3822 45.0884 51.4534 51.6838C56.9414 57.6455 58.2889 65.1463 59.3333 72.8587C59.428 73.5588 60.6144 73.543 60.725 72.8587C63.6611 54.8252 45.9234 37.995 28.1246 40.9848C27.7983 41.0395 27.9067 41.5069 28.1993 41.5301Z" fill="#AF9B64" fill-opacity="0.5"/>
<path d="M33.2632 99.2521C24.4623 98.572 16.0793 95.6938 10.0091 89.0984C4.52117 83.1367 3.17367 75.6359 2.12935 67.9234C2.0346 67.2234 0.848135 67.2392 0.737597 67.9234C-2.19851 85.957 15.5392 102.786 33.3379 99.7974C33.6643 99.7427 33.5548 99.2742 33.2632 99.2521Z" fill="#AF9B64" fill-opacity="0.5"/>
<path d="M28.1246 99.7974C45.9234 102.786 63.6611 85.957 60.725 67.9234C60.6144 67.2392 59.428 67.2234 59.3333 67.9234C58.2584 75.8675 56.7603 82.8051 51.4534 89.0984C45.7623 95.8486 36.7255 98.5931 28.1993 99.2521C27.9067 99.2742 27.7983 99.7427 28.1246 99.7974Z" fill="#AF9B64" fill-opacity="0.5"/>
<path d="M168.004 51.4691C156.265 48.7562 143.831 60.7206 146.324 72.5661C146.468 73.2515 147.581 73.2641 147.716 72.5661C148.759 67.1687 149.749 62.5145 153.511 58.2814C157.145 54.1926 162.8 52.764 168.004 52.005C168.281 51.9639 168.259 51.527 168.004 51.4691Z" fill="#AF9B64" fill-opacity="0.5"/>
<path d="M164.53 52.0038C169.933 52.7913 175.084 54.3251 179.023 58.2803C182.944 62.2154 183.813 67.3644 184.818 72.565C184.953 73.2629 186.067 73.2503 186.21 72.565C188.703 60.7195 176.27 48.755 164.53 51.468C164.275 51.5269 164.253 51.9638 164.53 52.0038Z" fill="#AF9B64" fill-opacity="0.5"/>
<path d="M168.004 89.7522C162.602 88.9647 157.45 87.4309 153.511 83.4757C149.591 79.5405 148.721 74.3916 147.716 69.191C147.581 68.493 146.467 68.5057 146.324 69.191C143.831 81.0365 156.264 93.0009 168.004 90.288C168.259 90.2291 168.281 89.7922 168.004 89.7522Z" fill="#AF9B64" fill-opacity="0.5"/>
<path d="M164.53 90.288C176.269 93.0009 188.703 81.0365 186.21 69.191C186.066 68.5057 184.953 68.493 184.818 69.191C183.775 74.5884 182.786 79.2426 179.023 83.4757C175.389 87.5646 169.735 88.9931 164.53 89.7522C164.253 89.7922 164.275 90.2291 164.53 90.288Z" fill="#AF9B64" fill-opacity="0.5"/>
<path d="M168.899 40.8954C151.351 37.195 132.162 54.9138 136.041 72.9231C136.238 73.8305 137.723 73.8579 137.898 72.9231C139.365 65.1075 140.574 58.2931 145.842 51.9798C151.482 45.2222 160.362 42.6177 168.801 41.6218C169.183 41.5776 169.341 40.9891 168.899 40.8954Z" fill="#AF9B64" fill-opacity="0.5"/>
<path d="M163.735 41.6228C172.436 42.6492 180.687 45.3705 186.694 51.9807C192.144 57.9782 193.209 65.3137 194.638 72.924C194.813 73.8589 196.298 73.8315 196.495 72.924C200.375 54.9147 181.185 37.196 163.637 40.8964C163.194 40.989 163.352 41.5775 163.735 41.6228Z" fill="#AF9B64" fill-opacity="0.5"/>
<path d="M168.799 99.1593C160.098 98.1319 151.848 95.4116 145.841 88.8024C140.391 82.8049 139.325 75.4694 137.897 67.8591C137.721 66.9243 136.237 66.9516 136.04 67.8591C132.16 85.8684 151.35 103.586 168.897 99.8868C169.34 99.7931 169.182 99.2046 168.799 99.1593Z" fill="#AF9B64" fill-opacity="0.5"/>
<path d="M163.637 99.8858C181.184 103.585 200.373 85.8675 196.494 67.8581C196.297 66.9507 194.813 66.9233 194.637 67.8581C193.17 75.6737 191.961 82.4881 186.693 88.8014C181.053 95.559 172.173 98.1635 163.735 99.1584C163.352 99.2047 163.195 99.7932 163.637 99.8858Z" fill="#AF9B64" fill-opacity="0.5"/>
<path d="M168.899 119.295C151.351 115.595 132.162 133.314 136.041 151.323C136.238 152.231 137.723 152.258 137.898 151.323C139.365 143.507 140.574 136.693 145.842 130.381C151.482 123.623 160.362 121.019 168.801 120.023C169.183 119.976 169.341 119.388 168.899 119.295Z" fill="#AF9B64" fill-opacity="0.5"/>
<path d="M163.735 120.022C172.436 121.048 180.687 123.77 186.694 130.38C192.144 136.377 193.209 143.713 194.638 151.322C194.813 152.257 196.298 152.229 196.495 151.322C200.375 133.313 181.185 115.594 163.637 119.294C163.194 119.388 163.352 119.977 163.735 120.022Z" fill="#AF9B64" fill-opacity="0.5"/>
<path d="M33.3623 121.278C15.8151 117.577 -3.3743 135.296 0.505063 153.305C0.700873 154.213 2.18627 154.24 2.36208 153.305C3.82856 145.49 5.03818 138.675 10.3061 132.363C15.9446 125.605 24.8256 123.001 33.2644 122.005C33.6455 121.96 33.8044 121.37 33.3623 121.278Z" fill="#AF9B64" fill-opacity="0.5"/>
<path d="M28.1996 122.005C36.9005 123.032 45.1509 125.753 51.1578 132.363C56.6079 138.361 57.6733 145.696 59.1019 153.305C59.2777 154.24 60.762 154.213 60.9589 153.305C64.8393 135.296 45.6488 117.577 28.1017 121.278C27.6584 121.37 27.8164 121.96 28.1996 122.005Z" fill="#AF9B64" fill-opacity="0.5"/>
</svg>
