<svg width="105" height="36" viewBox="0 0 105 36" fill="none" xmlns="http://www.w3.org/2000/svg">
<path d="M15.1838 31.4293C14.6941 31.5587 14.1997 31.6785 13.6956 31.7839C13.614 31.712 13.5324 31.6401 13.4556 31.5635C13.2252 31.3623 12.9996 31.1419 12.7788 30.9167L12.7308 30.8688C13.1964 30.7586 13.6572 30.6388 14.1181 30.5142C14.1517 30.543 14.1805 30.5717 14.2141 30.6053C14.4253 30.8017 14.6461 30.9933 14.8718 31.1802C14.9726 31.2664 15.0782 31.3479 15.1838 31.4293Z" fill="#09AF9B"/>
<path d="M21.7796 15.5614C21.7652 15.844 21.7268 16.1219 21.6548 16.3854C21.6452 16.4381 21.626 16.4956 21.6068 16.5483V16.5627C21.602 16.6058 21.5876 16.6441 21.5732 16.6777C21.5732 16.6825 21.5684 16.6968 21.5684 16.7016C21.5588 16.74 21.5396 16.7783 21.5156 16.807C21.482 16.8549 21.4532 16.8981 21.41 16.9364C21.386 16.9603 21.3572 16.9843 21.3187 17.0035C21.2947 17.0226 21.2707 17.0322 21.2371 17.0466C21.2131 17.0514 21.1939 17.061 21.1795 17.0705C21.1555 17.0753 21.1363 17.0801 21.1123 17.0897C21.0739 17.0897 21.0307 17.0993 20.9923 17.0993C20.9443 17.0993 20.8963 17.0945 20.8483 17.0801C20.7763 17.061 20.7091 17.0322 20.6515 16.9891C20.6227 16.9699 20.5891 16.946 20.5651 16.9172C20.5315 16.8837 20.5027 16.8549 20.4883 16.8166C20.4691 16.7879 20.4499 16.7639 20.4355 16.7352C20.3923 16.625 20.3731 16.5148 20.3923 16.3998C20.3923 16.3998 20.3971 16.3854 20.3971 16.3806C20.3971 16.371 20.3971 16.3663 20.4019 16.3615C20.3971 16.3567 20.4019 16.3423 20.4019 16.3375C20.4067 16.3183 20.4115 16.2944 20.4211 16.2752C20.4259 16.2752 20.4259 16.2752 20.4259 16.2752C20.4979 16.0405 20.5459 15.7865 20.5555 15.523C20.5699 15.0487 20.4739 14.5409 20.2771 14.057C20.1522 13.736 20.0034 13.4245 19.8402 13.1371C19.4466 12.4567 18.9521 11.8866 18.3953 11.4267C18.2417 11.2973 18.0929 11.1823 17.9344 11.0721C17.9344 11.0721 17.9296 11.0578 17.92 11.0673C17.8912 11.0338 17.8672 11.0194 17.8336 11.0003C17.656 10.8853 17.4784 10.7799 17.296 10.6888C15.9327 9.96061 14.3917 9.78334 13.1244 10.181C10.7098 10.9763 9.55767 13.1227 9.02002 14.79C8.93842 15.0775 8.87121 15.3601 8.8136 15.6332C8.7704 15.8536 8.7272 16.0596 8.69359 16.2752C8.66959 16.4094 8.65039 16.5483 8.63599 16.6825C8.61198 16.8837 8.58318 17.0945 8.57358 17.2957C8.54958 17.5688 8.53518 17.8515 8.53518 18.1341C8.55918 21.5454 9.71609 24.8895 11.9819 28.0708C12.3899 28.6314 12.8268 29.168 13.2924 29.6662C13.11 29.7189 12.9228 29.762 12.7404 29.8052C12.5435 29.8531 12.3515 29.8962 12.1595 29.9393C12.0827 29.9537 12.0059 29.9729 11.9291 29.9824C11.6027 29.6039 11.2858 29.2015 10.9834 28.7847C8.61198 25.4453 7.37347 21.9239 7.32067 18.3066C7.31107 18.2539 7.31107 18.1916 7.31107 18.1341C7.31107 18.0096 7.32067 17.8802 7.32547 17.7509C7.32547 17.5976 7.33507 17.4442 7.34467 17.3005C7.35427 17.0993 7.37347 16.8981 7.39747 16.7016C7.48388 15.9638 7.6327 15.2308 7.84391 14.4402C8.7512 11.6423 10.4458 9.77855 12.75 9.01677C14.5693 8.44663 16.8255 8.78201 18.6689 10.066C18.8273 10.1666 18.9857 10.2912 19.1393 10.4205C19.1729 10.4445 19.2114 10.478 19.2498 10.5116C19.3938 10.6314 19.5378 10.7607 19.6722 10.8997C20.3923 11.6135 21.0019 12.519 21.4196 13.6066C21.6836 14.239 21.8132 14.9194 21.7892 15.5661L21.7796 15.5614Z" fill="#09AF9B"/>
<path d="M38.1731 22.6425C37.8947 24.0128 37.5586 25.2201 37.1458 26.3556C36.1665 29.0099 34.7696 31.1179 32.8734 32.8044C30.3436 34.9268 27.4921 35.9952 24.3718 35.9952C23.3109 35.9952 22.2308 35.8754 21.1123 35.6311C18.6401 35.0226 16.4367 33.959 14.5117 32.4642C14.7373 32.4163 14.963 32.3588 15.1838 32.3013C15.4766 32.2247 15.7694 32.148 16.0575 32.0665C17.6512 33.1685 19.4322 33.959 21.3907 34.4477C25.4663 35.3293 28.961 34.4956 32.0717 31.8797C33.8047 30.3418 35.0912 28.3966 35.9937 25.934C36.3921 24.8608 36.7089 23.7062 36.973 22.4078C37.0402 22.0772 37.3666 21.8568 37.693 21.9239C38.0243 21.991 38.2403 22.312 38.1731 22.6425Z" fill="#09AF9B"/>
<path d="M21.674 15.9351C21.674 16.1411 21.65 16.3471 21.6068 16.5483V16.5627C21.602 16.6058 21.5876 16.6441 21.5732 16.6777C21.5732 16.6825 21.5684 16.6968 21.5684 16.7016C21.5636 16.7256 21.5588 16.7495 21.5492 16.7783C21.5444 16.807 21.5348 16.8358 21.5204 16.8693C21.3859 17.1376 21.0691 17.2813 20.7763 17.1807C20.4499 17.0753 20.277 16.7256 20.3827 16.4094C20.3875 16.4094 20.3875 16.4046 20.3875 16.4046C20.3875 16.4046 20.3891 16.403 20.3923 16.3998C20.3923 16.3998 20.3971 16.3854 20.3971 16.3806C20.3971 16.371 20.3971 16.3663 20.4019 16.3615C20.3971 16.3567 20.4019 16.3423 20.4019 16.3375C20.4067 16.3183 20.4115 16.2944 20.4211 16.2752C20.4355 16.165 20.4499 16.05 20.4499 15.9255C20.4499 15.8919 20.4499 15.8488 20.4451 15.8105C20.4451 15.7913 20.4355 15.777 20.4355 15.7578C20.4259 15.4895 20.3587 15.2068 20.2434 14.9337C19.8498 13.9324 19.1873 13.1754 18.4433 12.6867C17.9776 12.3753 17.4784 12.1645 16.9791 12.0687H16.9743C16.6191 11.9968 16.2735 11.9776 15.9422 12.016H15.9374C15.7886 12.0399 15.6542 12.0639 15.515 12.107C15.1358 12.2268 14.8093 12.404 14.5261 12.6196C14.5213 12.6196 14.5165 12.6244 14.5117 12.6292C14.3581 12.7442 14.2141 12.8832 14.0941 13.0173C13.8301 13.2952 13.614 13.6162 13.446 13.9468C13.2252 14.354 13.0716 14.7804 12.9564 15.1637C12.7692 15.9638 12.6876 16.692 12.6972 17.4969C12.7836 19.8925 13.6332 22.2784 15.2222 24.5685C16.2207 25.9675 17.392 27.0934 18.7217 27.9319C18.6017 27.9798 18.4817 28.0277 18.3617 28.0708H18.3569C18.0112 28.2002 17.6656 28.3295 17.3152 28.4493C16.1535 27.6013 15.1166 26.5377 14.2189 25.268C12.4907 22.7815 11.5642 20.1704 11.4778 17.5305C11.4634 16.6537 11.5402 15.8776 11.7419 15.0056C11.7515 14.9577 11.7611 14.9098 11.7755 14.8619C11.8283 14.6702 11.8859 14.4929 11.9531 14.3157C11.9867 14.2151 12.0251 14.1097 12.0683 14.0138C12.1835 13.7312 12.3131 13.4629 12.4523 13.2185H12.4571C13.1052 12.083 14.0317 11.2925 15.1502 10.9332C15.7118 10.7655 16.3455 10.7272 16.9935 10.8182C17.2528 10.8613 17.5264 10.9236 17.7952 11.0099C17.8384 11.0194 17.872 11.0338 17.9152 11.0578C17.9152 11.0578 17.9248 11.0482 17.9296 11.0578V11.0626C18.1456 11.1344 18.3569 11.2207 18.5729 11.3356H18.5777C19.7346 11.9154 20.7811 12.9598 21.3763 14.469C21.5156 14.8092 21.6068 15.1637 21.6308 15.5182C21.6452 15.5661 21.65 15.6188 21.6548 15.6668C21.6548 15.6668 21.6644 15.6859 21.6548 15.6907C21.6692 15.7722 21.6692 15.8488 21.6692 15.9303L21.674 15.9351Z" fill="#09AF9B"/>
<path d="M32.3934 23.8738C32.3934 23.8738 32.379 23.9122 32.3742 23.9313C31.7309 25.8957 30.7996 27.4001 29.5179 28.5834C27.8521 30.0351 25.9752 30.7634 23.8918 30.7634C23.0805 30.7634 22.2308 30.6484 21.3571 30.4232C21.2755 30.3993 21.1939 30.3753 21.1171 30.3513C21.3043 30.2795 21.4868 30.2028 21.674 30.1214H21.6788C22.154 29.9201 22.6293 29.7141 23.0997 29.4985C25.2071 29.7141 27.0505 29.1057 28.697 27.6827C29.4267 27.0024 30.0315 26.2071 30.5164 25.2537C30.694 25.1339 30.8716 25.0093 31.0492 24.88C31.5053 24.559 31.9517 24.2188 32.3934 23.8738Z" fill="#09AF9B"/>
<path d="M33.1518 19.2409C33.1518 19.2409 33.1134 19.2744 33.0942 19.2888C32.6958 19.6433 32.2878 19.9931 31.8701 20.3237C32.0141 18.5893 32.0573 15.1397 30.6316 11.7381C30.1756 10.6649 29.5707 9.57732 28.8266 8.52808C28.697 8.3556 28.5674 8.17833 28.4378 8.00586C28.2986 7.82859 28.1594 7.65132 28.0058 7.47405C27.8761 7.31594 27.7417 7.15784 27.6025 7.00453C24.9095 3.97658 20.9683 1.57147 16.1775 1.26005C11.0554 0.910301 7.06624 3.18605 5.14607 4.56588C4.86764 4.75752 4.48841 4.70003 4.28679 4.42215C4.08997 4.14906 4.15238 3.77056 4.426 3.57413C6.48539 2.09848 10.753 -0.325792 16.2591 0.0335377C21.6692 0.392867 26.0712 3.23396 28.961 6.71227C29.0955 6.87517 29.2299 7.04285 29.3547 7.21054C29.5275 7.42614 29.6955 7.64653 29.8539 7.86692C29.9739 8.03939 30.0891 8.21666 30.2092 8.39393C30.838 9.33298 31.3517 10.3056 31.7549 11.2638C33.003 14.2294 33.2046 17.2239 33.1518 19.2361V19.2409Z" fill="#09AF9B"/>
<path d="M29.0811 19.3223C28.9514 19.9643 28.793 20.5249 28.5962 21.0567C28.1354 22.3072 27.4777 23.3037 26.5752 24.1038C25.3655 25.1195 24.007 25.6322 22.5189 25.6322C22.0148 25.6322 21.5012 25.5699 20.9731 25.4549C19.0097 24.971 17.4064 23.893 16.2015 22.2305C15.0686 20.6447 14.4877 18.9582 14.4781 17.2286C14.4829 16.6298 14.5645 16.074 14.7277 15.4703C15.1742 14.1097 16.0383 13.1706 17.1616 12.7969C17.56 12.6723 17.992 12.634 18.4385 12.6867C18.9089 12.7346 19.389 12.8832 19.8354 13.1323C20.5315 13.5252 21.1459 14.1624 21.4916 15.0631C21.554 15.2116 21.602 15.3697 21.6308 15.5278C21.6452 15.5757 21.65 15.6236 21.6548 15.6763C21.6548 15.6811 21.6596 15.6955 21.6548 15.7003C21.6788 15.8297 21.6836 15.959 21.6788 16.0836C21.674 16.189 21.6644 16.2896 21.65 16.3902C21.6356 16.4525 21.626 16.51 21.602 16.5675C21.5972 16.6106 21.5828 16.6489 21.5732 16.6825C21.5732 16.6873 21.5684 16.7016 21.5684 16.7064C21.554 16.7447 21.5396 16.7783 21.5156 16.8118C21.4916 16.8597 21.4532 16.9028 21.41 16.9412C21.386 16.9651 21.3571 16.9891 21.3187 17.0083C21.2563 17.0514 21.1843 17.0801 21.1123 17.0945C21.0739 17.0993 21.0307 17.1089 20.9971 17.1089C20.9491 17.1089 20.9011 17.1041 20.8483 17.0897C20.7763 17.0705 20.7091 17.0418 20.6515 16.9987C20.6227 16.9795 20.5891 16.9556 20.5651 16.9268C20.5267 16.8981 20.5027 16.8645 20.4835 16.831C20.4643 16.8022 20.4451 16.7783 20.4355 16.7447C20.3875 16.6346 20.3683 16.5148 20.3923 16.3902C20.3923 16.3854 20.3923 16.3758 20.3971 16.371C20.3923 16.3662 20.3971 16.3519 20.3971 16.3471C20.4019 16.3279 20.4115 16.304 20.4163 16.2848C20.4451 16.1938 20.4595 16.1219 20.4595 16.0452C20.4595 15.9686 20.4595 15.8967 20.4403 15.8201C20.4403 15.8009 20.4355 15.7817 20.4355 15.7674C20.4163 15.6859 20.3923 15.6093 20.3635 15.523C19.8546 14.2151 18.4961 13.6593 17.536 13.9659C16.5855 14.2773 16.1247 15.1493 15.9038 15.8297C15.7742 16.3135 15.707 16.7591 15.7022 17.2478C15.7166 18.7091 16.2159 20.156 17.1952 21.5262C18.2273 22.9444 19.5954 23.8643 21.2563 24.2811C22.9749 24.6548 24.463 24.3002 25.7784 23.1887C26.5128 22.5419 27.0649 21.7035 27.4537 20.6495C27.6265 20.1799 27.7657 19.6721 27.8809 19.1067C28.2218 17.2957 28.0298 15.3889 27.2953 13.2808C26.7624 11.81 25.9944 10.4541 24.9815 9.22758C24.8663 9.06947 24.7319 8.91616 24.5878 8.76284C24.5062 8.66702 24.4246 8.56641 24.3286 8.47538C24.1942 8.32207 24.055 8.17833 23.9062 8.04419C23.8102 7.93878 23.7094 7.84296 23.6134 7.75193C23.1429 7.31115 22.6629 6.92787 22.1444 6.57812C21.2803 5.9984 20.3539 5.54804 19.3842 5.22704C14.4253 3.60767 9.82169 6.1613 9.30804 6.45355C5.06926 8.92574 2.59703 14.1145 3.00507 19.6769C3.02907 20.0122 2.77465 20.3045 2.43382 20.3285C2.09299 20.3524 1.80496 20.0985 1.78096 19.7583C1.33932 13.736 4.05156 8.09689 8.69359 5.38994C9.60087 4.86292 14.4061 2.31408 19.7586 4.05803C20.8339 4.40777 21.8612 4.91083 22.8213 5.55283C23.3925 5.93612 23.9206 6.36731 24.4438 6.85121C24.7127 7.10035 24.9719 7.35906 25.2167 7.62736C25.3559 7.77589 25.4903 7.91962 25.6151 8.07293C25.7255 8.1975 25.8312 8.31728 25.9224 8.43705C26.0616 8.59516 26.1864 8.75326 26.3064 8.91137C27.2185 10.1283 27.9289 11.4458 28.433 12.8544C29.2491 15.1733 29.4555 17.2861 29.0715 19.3223H29.0811Z" fill="#09AF9B"/>
<path d="M39.8196 9.98456C38.0387 7.06202 34.3519 6.57333 30.5644 7.03327C30.742 7.26324 30.9388 7.52196 31.1356 7.79026C31.2701 7.96753 31.3997 8.14959 31.5197 8.34123C34.1935 8.29811 37.0018 8.75805 38.1923 10.7943C38.3411 11.1727 38.4179 11.5656 38.4419 11.9537C38.6339 14.9864 35.4128 18.1773 33.3727 20.1129C33.2814 20.1943 33.1902 20.2758 33.099 20.3524C32.6526 20.7501 32.1917 21.1334 31.7309 21.5071C28.169 24.4009 24.127 26.7964 19.8498 28.5595C19.3554 28.7655 18.8609 28.9619 18.3617 29.144H18.3569C16.96 29.671 15.5534 30.1262 14.1229 30.5094C13.6621 30.6388 13.2012 30.7538 12.7356 30.864C12.5387 30.9119 12.3515 30.955 12.1547 30.9981C4.77644 32.5361 0.912083 30.8209 1.1185 27.3282C1.23851 25.2057 2.87546 22.4317 6.13976 19.3367C6.15416 19.3223 6.16376 19.3127 6.17816 19.308C6.16376 19.1163 6.15896 18.9343 6.15896 18.757C6.15896 18.5941 6.15896 18.4312 6.16376 18.2827C5.98135 18.4408 5.79893 18.5989 5.61171 18.7666C1.89137 22.0532 0.10561 25.1387 0 27.5869C0.244822 31.3527 4.74763 33.4224 12.4571 32.0426C12.8748 31.9611 13.2876 31.8797 13.7005 31.7791C14.2045 31.6737 14.6989 31.5539 15.1886 31.4245C16.8015 31.0173 18.3953 30.5142 19.9554 29.9297C20.5363 29.7141 21.1123 29.489 21.6788 29.2446H21.6836C24.9911 27.8648 28.1354 26.1065 31.054 24.008C31.6157 23.6055 32.1725 23.1839 32.7198 22.7479C33.4111 22.2065 34.0975 21.6364 34.7552 21.0519C37.0594 18.8097 40.1749 15.4703 40.3093 11.992C40.2661 11.3261 40.1125 10.6505 39.8196 9.98456Z" fill="#D8A64E"/>
<path d="M50.1934 17.3676C49.9678 17.0897 49.6893 16.8118 49.3725 16.5339C48.8685 16.7495 48.326 16.8597 47.7068 16.8597C45.1961 16.8597 43.324 14.8044 43.324 12.0447C43.324 9.28507 45.2057 7.24408 47.7068 7.24408C50.2078 7.24408 52.0896 9.29944 52.0896 12.0447C52.0896 13.7695 51.3071 15.3458 50.0302 16.1794C50.347 16.4573 50.6734 16.7208 51.0671 17.013C51.1295 17.0657 51.1535 17.1664 51.1295 17.2382L51.1055 17.3149C51.0815 17.3772 51.0047 17.4299 50.9279 17.4299H50.3326C50.2846 17.4299 50.2318 17.4059 50.1934 17.3676ZM48.7917 16.0213C48.4124 15.6811 48.0236 15.3266 47.5291 14.9864C47.4523 14.9385 47.4427 14.8619 47.4523 14.7852L47.4667 14.7085C47.4907 14.6079 47.5675 14.5552 47.654 14.5552H48.2348C48.2972 14.5552 48.35 14.5936 48.3884 14.6415C48.6044 14.9673 49.0077 15.2978 49.4109 15.662C50.2942 14.9816 50.7886 13.7072 50.7886 12.0447C50.7886 9.47192 49.6125 7.89566 47.7068 7.89566C45.801 7.89566 44.6249 9.47192 44.6249 12.0447C44.6249 14.6175 45.801 16.2034 47.7068 16.2034C48.11 16.2034 48.4652 16.1411 48.7917 16.0165V16.0213Z" fill="#09AF9B"/>
<path d="M60.4327 7.57466C60.3175 9.11259 60.2791 10.526 60.2935 13.0317V13.1179C60.2695 15.4895 59.055 16.8597 56.9956 16.8597C54.8258 16.8597 53.4481 15.4224 53.4241 13.1035V7.62257C53.4241 7.50759 53.5105 7.42135 53.6257 7.42135H54.533C54.6482 7.42135 54.7346 7.50759 54.7346 7.62257V13.0317C54.7346 15.1972 55.4019 16.1315 56.9956 16.1842C58.6374 16.2369 59.6119 15.0487 59.6119 13.0317C59.6263 10.5739 59.5879 9.1605 59.4726 7.65132C59.4726 7.52675 59.559 7.42614 59.6887 7.42614H60.2167C60.3415 7.42614 60.4423 7.48842 60.4327 7.57945V7.57466Z" fill="#09AF9B"/>
<path d="M61.1672 16.3327C61.7625 15.0583 62.5449 12.9406 63.6538 10.0037C63.7546 9.71147 63.8699 9.42401 63.9803 9.12217C64.1675 8.61911 64.3739 8.0873 64.5611 7.54591C64.5995 7.46926 64.6619 7.42135 64.7387 7.42135H65.7468C65.8236 7.42135 65.9004 7.47405 65.9244 7.54591L69.2319 16.3567C69.2943 16.5196 69.1791 16.6729 69.0063 16.6729H68.0462C67.9694 16.6729 67.8926 16.6202 67.8686 16.5483L66.7693 13.597H63.0586C62.5401 15.02 62.3145 15.7386 62.0985 16.5339C62.0745 16.6202 61.9977 16.6729 61.9065 16.6729H61.388C61.196 16.6729 61.0856 16.51 61.1624 16.3327H61.1672ZM66.5245 12.9215L64.9068 8.59995C64.5275 9.60607 64.2107 10.4637 63.9323 11.1967C63.6922 11.8627 63.4762 12.4328 63.3034 12.9215H66.5245Z" fill="#09AF9B"/>
<path d="M77.3975 16.4621C77.3975 16.5866 77.3111 16.6777 77.1959 16.6777H76.9078C76.8598 16.6777 76.7926 16.6393 76.7686 16.601L71.2145 8.7868C71.2001 12.7586 71.2001 14.5361 71.3537 16.4477C71.3537 16.5723 71.2673 16.6729 71.1377 16.6729H70.6097C70.4849 16.6729 70.3936 16.5723 70.3936 16.4477C70.5473 14.354 70.5473 12.4376 70.5329 7.63694C70.5329 7.51238 70.6193 7.42135 70.7345 7.42135H71.757C71.8098 7.42135 71.8722 7.45968 71.8962 7.498L76.7206 14.2773C76.735 11.0146 76.7062 9.38568 76.5814 7.64653C76.5814 7.52196 76.6678 7.42135 76.7974 7.42135H77.3255C77.4503 7.42135 77.5415 7.52196 77.5415 7.64653C77.3879 9.74022 77.3879 11.6566 77.4023 16.4573L77.3975 16.4621Z" fill="#09AF9B"/>
<path d="M81.3866 16.4717V8.10168C80.5802 8.10168 79.6969 8.14001 78.924 8.27895C78.7224 8.3029 78.5832 8.16396 78.6312 7.96274L78.7464 7.56029C78.7704 7.48363 78.8328 7.42135 78.924 7.42135H85.1646C85.251 7.42135 85.3182 7.48363 85.3422 7.56029L85.4574 7.96274C85.5054 8.14959 85.371 8.3029 85.1694 8.27895C84.4013 8.14001 83.5132 8.10168 82.7068 8.10168V16.4717C82.7068 16.5866 82.6203 16.6729 82.5051 16.6729H81.5979C81.4826 16.6729 81.3962 16.5866 81.3962 16.4717H81.3866Z" fill="#09AF9B"/>
<path d="M93.6998 7.57466C93.5846 9.11259 93.5462 10.526 93.5606 13.0317V13.1179C93.5366 15.4895 92.322 16.8597 90.2627 16.8597C88.0929 16.8597 86.7151 15.4224 86.6911 13.1035V7.62257C86.6911 7.50759 86.7775 7.42135 86.8927 7.42135H87.8C87.9152 7.42135 88.0017 7.50759 88.0017 7.62257V13.0317C88.0017 15.1972 88.6689 16.1315 90.2627 16.1842C91.9044 16.2369 92.8789 15.0487 92.8789 13.0317C92.8933 10.5739 92.8549 9.1605 92.7397 7.65132C92.7397 7.52675 92.8261 7.42614 92.9557 7.42614H93.4838C93.6086 7.42614 93.7094 7.48842 93.6998 7.57945V7.57466Z" fill="#09AF9B"/>
<path d="M104.486 7.62736V16.4764C104.486 16.5914 104.4 16.6777 104.285 16.6777H103.377C103.262 16.6777 103.176 16.5914 103.176 16.4764V9.4288L100.372 16.5627C100.348 16.625 100.272 16.6777 100.195 16.6777H99.1963C99.1195 16.6777 99.0427 16.625 99.0187 16.5627L96.0904 9.54379C96.076 13.0077 96.1048 14.6606 96.2296 16.4525C96.2296 16.5771 96.1432 16.6777 96.0136 16.6777H95.4855C95.3607 16.6777 95.2695 16.5771 95.2695 16.4525C95.4231 14.3588 95.4231 12.4424 95.4087 7.64174C95.4087 7.51717 95.4951 7.42614 95.6104 7.42614H96.5176C96.5944 7.42614 96.6713 7.47884 96.6953 7.54112L100.027 15.547L103.195 7.54112C103.219 7.47884 103.296 7.42614 103.373 7.42614H104.28C104.395 7.42614 104.482 7.51238 104.482 7.62736H104.486Z" fill="#09AF9B"/>
<path d="M43.1848 25.6082C43.1848 25.0093 43.2664 24.4344 43.4248 23.8834C43.5832 23.3324 43.8232 22.8294 44.1448 22.379C44.4617 21.9287 44.7929 21.6125 45.1385 21.4256L45.2921 21.9095C44.9033 22.2065 44.5865 22.6617 44.3369 23.2702C44.0872 23.8786 43.9528 24.5637 43.9288 25.3207V25.6609C43.9288 26.6862 44.1112 27.5725 44.4857 28.3247C44.7113 28.7751 44.9801 29.1296 45.2921 29.3836L45.1385 29.8339C44.7833 29.6375 44.4473 29.3069 44.1256 28.847C43.4968 27.9462 43.1848 26.8682 43.1848 25.613V25.6082Z" fill="#09AF9B"/>
<path d="M48.9597 25.6178H47.5964V27.9606H46.8283V22.1682H48.7485C49.4013 22.1682 49.9054 22.3167 50.2558 22.6138C50.6062 22.9108 50.7839 23.342 50.7839 23.9122C50.7839 24.2715 50.6878 24.5877 50.491 24.856C50.2942 25.1243 50.0254 25.3255 49.675 25.4549L51.0383 27.9127V27.9606H50.2174L48.9597 25.6178ZM47.5964 24.9949H48.7725C49.1517 24.9949 49.4541 24.8943 49.6798 24.6979C49.9054 24.5015 50.0158 24.238 50.0158 23.9074C50.0158 23.548 49.9102 23.275 49.6942 23.0833C49.4781 22.8917 49.1709 22.7958 48.7677 22.7911H47.5964V24.9902V24.9949Z" fill="#09AF9B"/>
<path d="M54.1538 25.6513C54.1538 26.2406 54.077 26.8108 53.9185 27.3521C53.7601 27.8935 53.5249 28.3966 53.2033 28.8517C52.8816 29.3117 52.5456 29.6375 52.1952 29.8291L52.0416 29.3788C52.4496 29.0673 52.7808 28.5787 53.0257 27.9223C53.2753 27.2611 53.4001 26.5329 53.4049 25.728V25.5986C53.4049 25.0429 53.3473 24.5254 53.2273 24.0463C53.1073 23.5672 52.9489 23.1408 52.7376 22.7575C52.5312 22.379 52.296 22.082 52.032 21.8712L52.1856 21.4208C52.536 21.6125 52.872 21.9382 53.1889 22.3934C53.5057 22.8486 53.7457 23.3468 53.9041 23.893C54.0626 24.4392 54.1394 25.0237 54.1394 25.6465L54.1538 25.6513Z" fill="#09AF9B"/>
<path d="M59.4006 25.2824H56.8852V27.333H59.8039V27.9558H56.1171V22.1634H59.7655V22.7863H56.8852V24.65H59.4006V25.2728V25.2824Z" fill="#09AF9B"/>
<path d="M63.5386 26.9449L65.1948 22.1682H66.03L63.8795 27.9606H63.2026L61.0568 22.1682H61.8873L63.5386 26.9449Z" fill="#09AF9B"/>
<path d="M72.0786 25.2537C72.0786 25.819 71.9826 26.3173 71.7906 26.7389C71.5986 27.1605 71.3297 27.4863 70.9793 27.7067C70.6289 27.9271 70.2208 28.0421 69.7504 28.0421C69.2799 28.0421 68.8863 27.9319 68.5359 27.7067C68.1806 27.4815 67.907 27.1653 67.715 26.7485C67.523 26.3316 67.4174 25.8525 67.4126 25.3064V24.8895C67.4126 24.3338 67.5086 23.8403 67.7054 23.4139C67.8974 22.9875 68.1758 22.6617 68.5263 22.4317C68.8815 22.2065 69.2847 22.0916 69.7456 22.0916C70.2064 22.0916 70.6193 22.2018 70.9745 22.4269C71.3297 22.6521 71.6034 22.9779 71.7954 23.3995C71.9874 23.8259 72.0834 24.3194 72.0834 24.8847V25.2489L72.0786 25.2537ZM71.3201 24.8752C71.3201 24.19 71.1809 23.663 70.9073 23.2941C70.6289 22.9252 70.2448 22.7431 69.7456 22.7431C69.2463 22.7431 68.8815 22.9252 68.6031 23.2941C68.3247 23.663 68.1806 24.1709 68.1758 24.8225V25.2489C68.1758 25.9148 68.3151 26.4371 68.5983 26.8155C68.8815 27.194 69.2655 27.3857 69.7552 27.3857C70.2448 27.3857 70.6337 27.2084 70.9025 26.8491C71.1713 26.4898 71.3105 25.9723 71.3201 25.3016V24.8704V24.8752Z" fill="#09AF9B"/>
<path d="M74.8532 27.333H77.6039V27.9558H74.0852V22.1634H74.8532V27.3282V27.333Z" fill="#09AF9B"/>
<path d="M83.206 22.1682V26.1065C83.206 26.6526 83.0332 27.0982 82.6924 27.448C82.3515 27.7929 81.8859 27.9894 81.305 28.0325L81.1034 28.0421C80.4698 28.0421 79.9609 27.8696 79.5865 27.5294C79.2073 27.1892 79.02 26.7149 79.0104 26.1161V22.173H79.7689V26.0921C79.7689 26.5089 79.8841 26.8347 80.1145 27.0695C80.345 27.3042 80.6762 27.4192 81.1034 27.4192C81.5307 27.4192 81.8667 27.3042 82.0971 27.0743C82.3275 26.8443 82.4428 26.5185 82.4428 26.1017V22.1778H83.2108L83.206 22.1682Z" fill="#09AF9B"/>
<path d="M89.2786 22.7911H87.416V27.9558H86.6527V22.7911H84.7902V22.1682H89.2786V22.7911Z" fill="#09AF9B"/>
<path d="M91.818 27.9606H91.0547V22.1682H91.818V27.9606Z" fill="#09AF9B"/>
<path d="M98.5386 25.2537C98.5386 25.819 98.4426 26.3173 98.2506 26.7389C98.0586 27.1605 97.7897 27.4863 97.4393 27.7067C97.0889 27.9271 96.6808 28.0421 96.2104 28.0421C95.74 28.0421 95.3463 27.9319 94.9959 27.7067C94.6455 27.4815 94.367 27.1653 94.175 26.7485C93.983 26.3316 93.8774 25.8525 93.8726 25.3064V24.8895C93.8726 24.3338 93.9686 23.8403 94.1654 23.4139C94.3622 22.9875 94.6359 22.6617 94.9863 22.4317C95.3415 22.2065 95.7448 22.0916 96.2056 22.0916C96.6664 22.0916 97.0793 22.2018 97.4345 22.4269C97.7897 22.6521 98.0634 22.9779 98.2554 23.3995C98.4474 23.8259 98.5434 24.3194 98.5434 24.8847V25.2489L98.5386 25.2537ZM97.7753 24.8752C97.7753 24.19 97.6361 23.663 97.3625 23.2941C97.0889 22.9252 96.7 22.7431 96.2008 22.7431C95.7016 22.7431 95.3367 22.9252 95.0583 23.2941C94.7799 23.663 94.6359 24.1709 94.6311 24.8225V25.2489C94.6311 25.9148 94.7703 26.4371 95.0535 26.8155C95.3319 27.194 95.7208 27.3857 96.2104 27.3857C96.7 27.3857 97.0889 27.2084 97.3577 26.8491C97.6265 26.4898 97.7657 25.9723 97.7753 25.3016V24.8704V24.8752Z" fill="#09AF9B"/>
<path d="M105 27.9606H104.232L101.313 23.5001V27.9606H100.545V22.1682H101.313L104.242 26.6526V22.1682H105.005V27.9606H105Z" fill="#09AF9B"/>
</svg>
