<svg width="152" height="148" viewBox="0 0 152 148" fill="none" xmlns="http://www.w3.org/2000/svg">
<path d="M83.2184 11.4942C83.569 8.45685 83.9189 5.41953 84.2688 2.38141C84.1168 2.36558 83.9672 2.345 83.816 2.33075C83.4653 5.36808 83.1162 8.40619 82.7664 11.4443C82.9176 11.4586 83.0672 11.4783 83.2184 11.4942Z" fill="#AF9B64" fill-opacity="0.5"/>
<path d="M90.331 12.5992C91.0268 9.61337 91.7218 6.62909 92.4176 3.64401C92.268 3.61314 92.1184 3.58227 91.9672 3.55219C91.2722 6.53727 90.5772 9.52234 89.8813 12.5074C90.0317 12.5375 90.1829 12.5684 90.331 12.5992Z" fill="#AF9B64" fill-opacity="0.5"/>
<path d="M132.793 104.486C135.576 105.984 138.358 107.481 141.141 108.978C141.206 108.84 141.27 108.701 141.335 108.561C138.552 107.064 135.768 105.567 132.987 104.07C132.922 104.209 132.857 104.347 132.793 104.486Z" fill="#AF9B64" fill-opacity="0.5"/>
<path d="M129.254 110.864C131.862 112.679 134.468 114.492 137.076 116.307C137.159 116.179 137.243 116.053 137.325 115.925C134.718 114.109 132.111 112.295 129.504 110.481C129.421 110.611 129.337 110.736 129.254 110.864Z" fill="#AF9B64" fill-opacity="0.5"/>
<path d="M97.368 14.4666C98.405 11.5702 99.442 8.67535 100.48 5.77893C100.336 5.73064 100.187 5.69185 100.041 5.64514C99.0035 8.54077 97.9665 11.4364 96.9287 14.332C97.0744 14.378 97.2232 14.4183 97.368 14.4666Z" fill="#AF9B64" fill-opacity="0.5"/>
<path d="M104.139 17.1374C105.507 14.3708 106.875 11.6026 108.243 8.83523C108.104 8.7719 107.968 8.70383 107.827 8.6413C106.46 11.4087 105.092 14.1761 103.725 16.9443C103.864 17.006 104 17.0733 104.139 17.1374Z" fill="#AF9B64" fill-opacity="0.5"/>
<path d="M119.238 122.078C121.364 124.433 123.489 126.788 125.616 129.145C125.733 129.048 125.854 128.954 125.972 128.855C123.846 126.5 121.72 124.144 119.593 121.788C119.476 121.887 119.356 121.981 119.238 122.078Z" fill="#AF9B64" fill-opacity="0.5"/>
<path d="M124.486 117.065C126.871 119.169 129.257 121.275 131.642 123.379C131.744 123.267 131.843 123.149 131.945 123.035C129.558 120.931 127.174 118.827 124.788 116.722C124.687 116.836 124.588 116.953 124.486 117.065Z" fill="#AF9B64" fill-opacity="0.5"/>
<path d="M59.0077 13.1312C58.1789 10.1762 57.3501 7.22118 56.5214 4.26697C56.3725 4.30417 56.2245 4.34296 56.0757 4.38017C56.9053 7.33517 57.7333 10.2902 58.5621 13.2444C58.7109 13.2064 58.8589 13.1684 59.0077 13.1312Z" fill="#AF9B64" fill-opacity="0.5"/>
<path d="M66.0847 11.7657C65.5979 8.74503 65.1111 5.72273 64.625 2.70123C64.4738 2.72181 64.325 2.7511 64.1738 2.77247C64.6599 5.79397 65.1467 8.81546 65.6335 11.8377C65.7847 11.8156 65.9327 11.7871 66.0847 11.7657Z" fill="#AF9B64" fill-opacity="0.5"/>
<path d="M52.1132 15.2408C50.944 12.3903 49.7748 9.54137 48.6057 6.69086C48.4632 6.74389 48.3183 6.79218 48.175 6.84443C49.345 9.69494 50.5134 12.5439 51.6826 15.3936C51.8251 15.3405 51.9707 15.293 52.1132 15.2408Z" fill="#AF9B64" fill-opacity="0.5"/>
<path d="M138.825 75.6469C138.824 75.7997 138.823 75.9549 138.819 76.106C141.894 76.2121 144.969 76.3198 148.043 76.4258C148.046 76.2739 148.046 76.1187 148.05 75.9659C144.976 75.8599 141.901 75.7538 138.825 75.6469Z" fill="#AF9B64" fill-opacity="0.5"/>
<path d="M75.8367 11.1047C75.9095 11.1047 75.9816 11.1095 76.0536 11.1095C76.0536 8.05471 76.0536 4.99838 76.0536 1.94364C75.9808 1.94364 75.9095 1.9389 75.8367 1.9389C75.7552 1.9389 75.676 1.94364 75.5945 1.94444C75.5945 4.99918 75.5945 8.05472 75.5945 11.1103C75.676 11.1095 75.7552 11.1047 75.8367 11.1047Z" fill="#AF9B64" fill-opacity="0.5"/>
<path d="M136.229 54.6896C139.174 53.7492 142.119 52.808 145.064 51.8676C145.022 51.7211 144.986 51.57 144.942 51.4235C141.999 52.3639 139.054 53.3059 136.109 54.2463C136.152 54.3928 136.187 54.5432 136.229 54.6896Z" fill="#AF9B64" fill-opacity="0.5"/>
<path d="M138.385 83.2462C141.439 83.7013 144.494 84.1573 147.549 84.6132C147.565 84.462 147.58 84.3101 147.595 84.1573C144.54 83.7037 141.485 83.2478 138.431 82.7902C138.417 82.943 138.4 83.095 138.385 83.2462Z" fill="#AF9B64" fill-opacity="0.5"/>
<path d="M133.834 47.802C136.659 46.5228 139.483 45.2444 142.308 43.9652C142.249 43.8235 142.183 43.6881 142.123 43.5488C139.298 44.8265 136.473 46.1056 133.649 47.3856C133.708 47.525 133.776 47.6611 133.834 47.802Z" fill="#AF9B64" fill-opacity="0.5"/>
<path d="M137.801 61.6255C140.825 61.0247 143.848 60.4254 146.871 59.8254C146.846 59.6758 146.822 59.523 146.795 59.3742C143.772 59.9742 140.749 60.5735 137.727 61.1727C137.753 61.3223 137.775 61.4735 137.801 61.6255Z" fill="#AF9B64" fill-opacity="0.5"/>
<path d="M138.663 68.9311C141.73 68.6873 144.796 68.4451 147.861 68.2005C147.851 68.0493 147.841 67.8965 147.83 67.7445C144.763 67.9891 141.697 68.2313 138.631 68.4759C138.643 68.6263 138.654 68.7791 138.663 68.9311Z" fill="#AF9B64" fill-opacity="0.5"/>
<path d="M130.586 41.2279C133.252 39.6304 135.918 38.0346 138.584 36.4372C138.508 36.3034 138.431 36.172 138.354 36.0382C135.689 37.6356 133.023 39.2323 130.358 40.8297C130.434 40.9619 130.51 41.0949 130.586 41.2279Z" fill="#AF9B64" fill-opacity="0.5"/>
<path d="M47.4141 130.886C46.0328 133.678 44.6523 136.473 43.2717 139.268C43.4134 139.325 43.5543 139.384 43.6968 139.44C45.0773 136.646 46.4587 133.852 47.8392 131.057C47.6967 131 47.5558 130.942 47.4141 130.886Z" fill="#AF9B64" fill-opacity="0.5"/>
<path d="M135.515 97.5043C138.43 98.6592 141.346 99.8149 144.26 100.97C144.306 100.824 144.348 100.677 144.393 100.531C141.478 99.3756 138.562 98.2207 135.647 97.0649C135.603 97.2098 135.56 97.3594 135.515 97.5043Z" fill="#AF9B64" fill-opacity="0.5"/>
<path d="M110.355 20.4455C112.031 17.8404 113.707 15.2361 115.382 12.6302C115.252 12.5502 115.119 12.475 114.988 12.3959C113.312 15.001 111.636 17.6053 109.96 20.2097C110.091 20.2896 110.224 20.3656 110.355 20.4455Z" fill="#AF9B64" fill-opacity="0.5"/>
<path d="M116.403 24.6677C118.378 22.2708 120.353 19.8715 122.327 17.4738C122.207 17.3796 122.093 17.2783 121.974 17.1841C120 19.5826 118.025 21.9811 116.05 24.378C116.171 24.4714 116.284 24.5735 116.403 24.6677Z" fill="#AF9B64" fill-opacity="0.5"/>
<path d="M126.571 35.1049C129.04 33.2114 131.51 31.318 133.98 29.4237C133.888 29.3034 133.804 29.1759 133.712 29.0556C131.242 30.9491 128.773 32.8426 126.302 34.7368C126.393 34.8572 126.48 34.9838 126.571 35.1049Z" fill="#AF9B64" fill-opacity="0.5"/>
<path d="M20.0726 106.892C17.3543 108.52 14.636 110.148 11.9185 111.776C11.9913 111.912 12.0673 112.044 12.1401 112.179C14.8584 110.55 17.5767 108.922 20.2935 107.295C20.2206 107.159 20.1447 107.027 20.0726 106.892Z" fill="#AF9B64" fill-opacity="0.5"/>
<path d="M137.293 90.5549C140.295 91.3679 143.297 92.1816 146.298 92.9962C146.329 92.8466 146.358 92.6938 146.387 92.5442C143.385 91.7304 140.383 90.9159 137.381 90.1029C137.353 90.2533 137.323 90.4045 137.293 90.5549Z" fill="#AF9B64" fill-opacity="0.5"/>
<path d="M121.91 29.6635C124.151 27.5064 126.394 25.3502 128.635 23.1939C128.53 23.0823 128.42 22.9778 128.313 22.8669C126.07 25.0248 123.828 27.1811 121.587 29.3374C121.694 29.4466 121.803 29.5527 121.91 29.6635Z" fill="#AF9B64" fill-opacity="0.5"/>
<path d="M13.5887 85.7983C10.5514 86.4015 7.51407 87.0031 4.47754 87.6055C4.49733 87.7567 4.51632 87.911 4.53691 88.0606C7.57423 87.4582 10.6116 86.8558 13.6481 86.2542C13.6275 86.103 13.6085 85.9495 13.5887 85.7983Z" fill="#AF9B64" fill-opacity="0.5"/>
<path d="M17.0741 100.162C14.2077 101.46 11.3422 102.757 8.47583 104.055C8.52887 104.199 8.58428 104.338 8.6389 104.481C11.5045 103.184 14.3708 101.887 17.2371 100.589C17.1833 100.446 17.1279 100.306 17.0741 100.162Z" fill="#AF9B64" fill-opacity="0.5"/>
<path d="M68.4283 135.914C68.0784 138.952 67.7285 141.99 67.3787 145.03C67.5299 145.044 67.6834 145.061 67.833 145.073C68.1821 142.037 68.532 138.997 68.8827 135.959C68.7331 135.945 68.5803 135.93 68.4283 135.914Z" fill="#AF9B64" fill-opacity="0.5"/>
<path d="M12.8865 71.2893C9.81274 71.1824 6.73979 71.0763 3.66684 70.9695C3.6613 71.1215 3.66051 71.2758 3.65576 71.4286C6.7295 71.5355 9.80245 71.6423 12.8754 71.7476C12.8801 71.594 12.8809 71.4405 12.8865 71.2893Z" fill="#AF9B64" fill-opacity="0.5"/>
<path d="M75.8367 136.293C75.7599 136.293 75.6744 136.292 75.5945 136.292C75.5945 139.347 75.5945 142.403 75.5945 145.459C75.6744 145.459 75.7591 145.46 75.8367 145.46C75.9056 145.46 75.9824 145.459 76.0536 145.459C76.0536 142.403 76.0536 139.347 76.0536 136.292C75.9816 136.292 75.9056 136.293 75.8367 136.293Z" fill="#AF9B64" fill-opacity="0.5"/>
<path d="M12.9355 78.4578C9.86497 78.7032 6.79439 78.9455 3.72461 79.1901C3.73173 79.3413 3.73648 79.4964 3.74361 79.6476C6.81418 79.403 9.88397 79.16 12.9545 78.9162C12.9466 78.765 12.9427 78.6106 12.9355 78.4578Z" fill="#AF9B64" fill-opacity="0.5"/>
<path d="M14.9076 92.9677C11.9352 93.9176 8.96357 94.8667 5.99194 95.8182C6.02677 95.967 6.05923 96.1174 6.09485 96.2655C9.06727 95.3163 12.0397 94.3672 15.0121 93.4165C14.9749 93.2693 14.9432 93.1173 14.9076 92.9677Z" fill="#AF9B64" fill-opacity="0.5"/>
<path d="M113.069 126.475C114.9 129.042 116.731 131.611 118.563 134.179C118.693 134.099 118.821 134.016 118.95 133.933C117.119 131.366 115.287 128.799 113.456 126.231C113.327 126.312 113.199 126.396 113.069 126.475Z" fill="#AF9B64" fill-opacity="0.5"/>
<path d="M24.0068 113.17C21.4832 115.105 18.9604 117.041 16.436 118.975C16.5271 119.099 16.6205 119.215 16.7123 119.337C19.2351 117.402 21.7587 115.467 24.2831 113.533C24.192 113.411 24.0978 113.293 24.0068 113.17Z" fill="#AF9B64" fill-opacity="0.5"/>
<path d="M40.7862 127.737C39.0858 130.381 37.3847 133.024 35.6836 135.668C35.8174 135.742 35.9504 135.818 36.0849 135.891C37.7861 133.248 39.4864 130.602 41.1859 127.959C41.0529 127.889 40.92 127.811 40.7862 127.737Z" fill="#AF9B64" fill-opacity="0.5"/>
<path d="M61.3737 134.914C60.6771 137.904 59.9805 140.894 59.2847 143.884C59.4351 143.913 59.5863 143.94 59.7367 143.967C60.4325 140.979 61.1291 137.988 61.8257 134.998C61.6753 134.971 61.5257 134.943 61.3737 134.914Z" fill="#AF9B64" fill-opacity="0.5"/>
<path d="M34.3544 123.59C32.3414 126.034 30.3292 128.48 28.3162 130.923C28.4381 131.015 28.5592 131.108 28.6811 131.2C30.6933 128.755 32.7063 126.31 34.7201 123.866C34.5974 123.774 34.4771 123.681 34.3544 123.59Z" fill="#AF9B64" fill-opacity="0.5"/>
<path d="M54.3269 133.258C53.2852 136.167 52.2427 139.079 51.2009 141.987C51.3482 142.03 51.4954 142.073 51.6418 142.114C52.6836 139.205 53.7261 136.294 54.7694 133.385C54.6222 133.344 54.4741 133.301 54.3269 133.258Z" fill="#AF9B64" fill-opacity="0.5"/>
<path d="M28.7103 118.673C26.4187 120.877 24.1278 123.081 21.8362 125.286C21.9438 125.396 22.0531 125.501 22.1615 125.609C24.4532 123.405 26.7448 121.201 29.0365 118.997C28.928 118.888 28.8188 118.782 28.7103 118.673Z" fill="#AF9B64" fill-opacity="0.5"/>
<path d="M33.356 26.2486C31.2733 23.9403 29.1898 21.632 27.1064 19.3245C26.9916 19.4251 26.8824 19.5319 26.7676 19.6333C28.8502 21.9407 30.9345 24.249 33.0172 26.5565C33.1312 26.4552 33.2404 26.3483 33.356 26.2486Z" fill="#AF9B64" fill-opacity="0.5"/>
<path d="M28.1158 31.4423C25.783 29.3833 23.4494 27.326 21.1166 25.2671C21.0145 25.3811 20.9116 25.4935 20.811 25.609C23.1438 27.6672 25.4782 29.7253 27.8103 31.7842C27.9116 31.6687 28.0153 31.5563 28.1158 31.4423Z" fill="#AF9B64" fill-opacity="0.5"/>
<path d="M106.589 129.889C108.1 132.628 109.609 135.367 111.12 138.106C111.261 138.042 111.399 137.977 111.538 137.912C110.028 135.174 108.518 132.435 107.007 129.697C106.868 129.761 106.729 129.826 106.589 129.889Z" fill="#AF9B64" fill-opacity="0.5"/>
<path d="M45.4732 18.1246C43.9803 15.4173 42.4881 12.7101 40.9952 10.0037C40.8583 10.0725 40.7253 10.1485 40.5891 10.219C42.0828 12.9254 43.5758 15.6319 45.0687 18.3407C45.2041 18.2687 45.3371 18.1934 45.4732 18.1246Z" fill="#AF9B64" fill-opacity="0.5"/>
<path d="M99.7395 132.53C100.917 135.398 102.093 138.267 103.27 141.136C103.413 141.088 103.559 141.04 103.703 140.991C102.527 138.123 101.35 135.254 100.173 132.386C100.028 132.434 99.8828 132.483 99.7395 132.53Z" fill="#AF9B64" fill-opacity="0.5"/>
<path d="M39.0534 21.9013C37.2525 19.3769 35.4516 16.8517 33.6508 14.3265C33.5249 14.4112 33.3951 14.4944 33.27 14.5791C35.0709 17.1042 36.8718 19.6294 38.6718 22.1538C38.7977 22.0691 38.9267 21.9867 39.0534 21.9013Z" fill="#AF9B64" fill-opacity="0.5"/>
<path d="M92.5554 134.46C93.3858 137.423 94.217 140.385 95.0481 143.348C95.1977 143.315 95.3466 143.284 95.497 143.25C94.6666 140.288 93.8354 137.325 93.0043 134.362C92.8546 134.395 92.7058 134.426 92.5554 134.46Z" fill="#AF9B64" fill-opacity="0.5"/>
<path d="M14.845 56.8935C11.8647 56.0852 8.88359 55.2762 5.90326 54.4696C5.86684 54.6176 5.83518 54.7672 5.79956 54.9169C8.77989 55.7243 11.7602 56.5309 14.7406 57.3399C14.7762 57.1911 14.8086 57.0423 14.845 56.8935Z" fill="#AF9B64" fill-opacity="0.5"/>
<path d="M16.9721 50.0359C14.0931 48.8952 11.2141 47.7545 8.33505 46.6138C8.28202 46.7571 8.22345 46.8964 8.17041 47.0397C11.0502 48.1804 13.9284 49.3219 16.8074 50.4625C16.8605 50.3177 16.919 50.1799 16.9721 50.0359Z" fill="#AF9B64" fill-opacity="0.5"/>
<path d="M85.5776 135.653C86.0645 138.675 86.5513 141.699 87.0381 144.72C87.1901 144.702 87.3381 144.684 87.4917 144.665C87.0049 141.641 86.518 138.619 86.0312 135.596C85.8784 135.615 85.7288 135.633 85.5776 135.653Z" fill="#AF9B64" fill-opacity="0.5"/>
<path d="M19.9778 43.2607C17.2429 41.7899 14.5095 40.3184 11.7746 38.8476C11.7049 38.9837 11.6369 39.1207 11.5664 39.2576C14.3013 40.7284 17.0347 42.2 19.7696 43.67C19.8393 43.5338 19.9074 43.3953 19.9778 43.2607Z" fill="#AF9B64" fill-opacity="0.5"/>
<path d="M23.7947 36.9129C21.241 35.1358 18.6873 33.3579 16.1329 31.5807C16.0458 31.7066 15.9563 31.8293 15.8708 31.9552C18.4245 33.7331 20.9782 35.5102 23.5311 37.2865C23.6173 37.1607 23.7076 37.038 23.7947 36.9129Z" fill="#AF9B64" fill-opacity="0.5"/>
<path d="M13.4794 64.1483C10.4334 63.6939 7.38893 63.2395 4.34289 62.7844C4.3231 62.934 4.30885 63.0875 4.28906 63.2371C7.3351 63.6915 10.3803 64.1459 13.4256 64.6003C13.4446 64.4507 13.4596 64.2987 13.4794 64.1483Z" fill="#AF9B64" fill-opacity="0.5"/>
<path d="M79.3068 10.8799C41.5797 7.35016 5.11988 42.807 11.4011 81.1437C11.5381 81.982 12.7904 81.7302 12.822 80.9513C13.1878 71.9217 13.8084 63.4786 16.6106 54.8107C19.2094 46.7721 23.6747 39.4356 29.2388 33.1164C41.4799 19.2129 61.0322 11.791 79.3068 11.4371C79.6717 11.43 79.6583 10.9131 79.3068 10.8799Z" fill="#AF9B64" fill-opacity="0.5"/>
<path d="M68.2689 11.7933C86.363 10.9764 105.512 16.9933 118.846 29.4363C124.81 35.0027 129.464 41.8001 132.859 49.1928C136.928 58.0562 138.098 67.2616 139.102 76.8406C139.199 77.7691 140.457 77.7747 140.549 76.8406C144.352 38.177 105.496 5.31658 68.1953 11.2472C67.8826 11.2962 67.9593 11.8068 68.2689 11.7933Z" fill="#AF9B64" fill-opacity="0.5"/>
<path d="M83.3398 136.205C65.248 137.026 46.0924 131.002 32.762 118.561C26.7982 112.995 22.1437 106.198 18.7501 98.8057C14.6813 89.9438 13.5114 80.74 12.5084 71.1626C12.4111 70.2333 11.1532 70.2285 11.0614 71.1626C7.25545 109.818 46.1193 142.689 83.4142 136.751C83.7261 136.702 83.6493 136.192 83.3398 136.205Z" fill="#AF9B64" fill-opacity="0.5"/>
<path d="M72.3006 137.117C110.026 140.663 146.488 105.183 140.207 66.8579C140.07 66.0196 138.818 66.2713 138.786 67.0503C138.421 76.0791 137.801 84.5214 134.998 93.1893C132.4 101.228 127.934 108.564 122.37 114.883C110.132 128.783 90.5721 136.214 72.3006 136.56C71.9365 136.568 71.9491 137.084 72.3006 137.117Z" fill="#AF9B64" fill-opacity="0.5"/>
<path d="M79.8941 0.339046C35.611 -3.5342 -5.99333 37.5857 0.714595 82.3096C0.839666 83.1432 2.1165 82.9018 2.1355 82.1173C2.40148 71.3461 3.22868 61.2154 6.67368 50.92C9.83528 41.4716 15.1769 32.8464 21.8469 25.4847C36.1619 9.68533 58.8101 1.09183 79.8941 0.895511C80.2582 0.892345 80.2463 0.369918 79.8941 0.339046Z" fill="#AF9B64" fill-opacity="0.5"/>
<path d="M67.0046 1.3112C88.1551 0.141231 110.71 7.3154 126.27 21.8688C133.253 28.3994 138.723 36.3683 142.677 45.0473C147.382 55.3727 148.847 66.14 149.84 77.3164C149.924 78.2473 151.208 78.2497 151.287 77.3164C155.122 32.2481 110.743 -5.9263 66.931 0.765001C66.6191 0.811705 66.6943 1.32861 67.0046 1.3112Z" fill="#AF9B64" fill-opacity="0.5"/>
<path d="M84.603 146.687C63.455 147.86 40.8939 140.679 25.3352 126.128C18.3526 119.598 12.8835 111.629 8.92952 102.951C4.2251 92.6273 2.76066 81.8617 1.76801 70.6877C1.68568 69.7568 0.400145 69.7544 0.320986 70.6877C-3.51585 115.747 40.8717 153.933 84.6767 147.234C84.9885 147.187 84.9141 146.67 84.603 146.687Z" fill="#AF9B64" fill-opacity="0.5"/>
<path d="M71.7128 147.658C115.993 151.55 157.601 110.402 150.893 65.6919C150.768 64.8584 149.491 65.0998 149.471 65.8843C149.206 76.6546 148.379 86.7838 144.935 97.0792C141.774 106.527 136.431 115.152 129.762 122.514C115.449 138.309 92.7936 146.914 71.7128 147.101C71.3486 147.104 71.3605 147.627 71.7128 147.658Z" fill="#AF9B64" fill-opacity="0.5"/>
<path d="M45.4292 19.4853C54.7098 20.8579 64.5223 20.1328 73.8979 20.584C84.878 21.112 96.1811 19.847 107.062 21.4919C108.464 21.7041 108.726 19.7425 107.321 19.5787C96.7827 18.3493 86.0156 19.851 75.413 19.4117C65.6844 19.0087 55.0668 17.3836 45.4292 19.1639C45.2725 19.1924 45.2669 19.4615 45.4292 19.4853Z" fill="#AF9B64" fill-opacity="0.5"/>
<path d="M106.8 129.212C109.635 126.116 111.837 122.319 114.15 118.831C117.774 113.368 121.212 107.777 124.639 102.19C129.968 93.4988 136.299 84.5894 139.36 74.7658C139.455 74.4618 139.007 74.2782 138.852 74.5513C133.918 83.2509 128.762 91.8752 123.688 100.5C118.077 110.041 111.783 119.221 106.276 128.808C106.089 129.131 106.539 129.496 106.8 129.212Z" fill="#AF9B64" fill-opacity="0.5"/>
<path d="M107.488 19.8676C112.627 29.2883 118.534 38.3417 123.795 47.7094C128.852 56.7137 133.961 65.7425 138.851 74.8324C139.002 75.1118 139.447 74.9194 139.36 74.617C136.603 65.0198 130.7 56.268 125.735 47.7086C122.425 42.0028 119.085 36.3033 115.58 30.7139C113.213 26.9396 110.957 22.8258 108.012 19.4631C107.755 19.1686 107.312 19.5438 107.488 19.8676Z" fill="#AF9B64" fill-opacity="0.5"/>
<path d="M45.3555 19.2066C38.7212 26.6784 33.8292 36.3556 28.7915 44.9444C23.495 53.9724 16.844 62.6142 12.5568 72.1671C11.9781 73.4574 13.8043 74.2213 14.3371 72.9175C18.2752 63.287 24.7243 54.593 29.8688 45.5745C34.8527 36.8385 41.7284 28.6455 45.6341 19.3697C45.6998 19.2138 45.4616 19.0871 45.3555 19.2066Z" fill="#AF9B64" fill-opacity="0.5"/>
<path d="M106.792 127.403C96.0645 127.206 85.2759 127.859 74.5341 127.796C64.2054 127.735 53.8293 127.707 43.5085 127.458C43.195 127.45 43.1286 127.931 43.4349 128.004C53.139 130.357 63.6616 129.56 73.5556 129.481C80.1527 129.429 86.7586 129.346 93.3509 129.066C97.8044 128.877 102.499 128.953 106.882 128.058C107.26 127.981 107.159 127.41 106.792 127.403Z" fill="#AF9B64" fill-opacity="0.5"/>
<path d="M12.1101 72.6983C13.3973 76.695 15.6082 80.4875 17.4953 84.2238C20.4495 90.0768 23.6064 95.8317 26.7664 101.575C31.6822 110.505 36.29 120.414 43.3114 127.935C43.5291 128.167 43.9091 127.867 43.7484 127.597C38.6292 119.005 33.6865 110.255 28.7003 101.577C23.1868 91.9806 18.3241 81.9686 12.7197 72.441C12.5313 72.1196 11.9914 72.3318 12.1101 72.6983Z" fill="#AF9B64" fill-opacity="0.5"/>
<path d="M76.7945 19.6317C83.7129 25.1491 92.0951 29.2408 99.536 34.0481C107.032 38.8918 115.434 42.5292 122.416 48.1241C123.376 48.8944 124.429 47.5249 123.445 46.7895C116.612 41.6838 108.561 38.4873 101.371 33.9222C93.5951 28.9859 85.6618 22.5083 76.9361 19.3879C76.8024 19.3412 76.6805 19.5414 76.7945 19.6317Z" fill="#AF9B64" fill-opacity="0.5"/>
<path d="M75.0688 129.264C83.8309 126.515 92.2684 121.049 100.305 116.711C108.149 112.477 116.83 108.518 123.46 102.441C123.667 102.251 123.402 101.922 123.166 102.06C115.646 106.448 108.004 110.693 100.416 114.973C91.993 119.724 83.2071 123.899 74.8448 128.733C74.5606 128.895 74.7498 129.364 75.0688 129.264Z" fill="#AF9B64" fill-opacity="0.5"/>
<path d="M123.441 47.0793C123.19 56.4137 123.687 65.809 123.558 75.1577C123.433 84.185 123.325 93.2495 123.045 102.269C123.036 102.544 123.455 102.599 123.521 102.333C125.629 93.8994 125.019 84.747 125.021 76.1306C125.024 66.694 125.833 56.3139 124.013 47.0017C123.949 46.6684 123.451 46.761 123.441 47.0793Z" fill="#AF9B64" fill-opacity="0.5"/>
<path d="M76.8584 19.3879C68.4169 22.1727 60.3189 27.455 52.6167 31.8293C44.822 36.2558 36.2214 39.7681 28.93 44.9894C28.0379 45.6283 28.9284 47.1172 29.7873 46.4563C36.5483 41.2626 44.5465 37.8944 51.8465 33.5462C59.9587 28.7144 69.4396 25.3383 76.9708 19.6539C77.0927 19.5628 77.0278 19.3325 76.8584 19.3879Z" fill="#AF9B64" fill-opacity="0.5"/>
<path d="M75.8524 127.897C67.8669 123.06 59.457 118.844 51.3987 114.106C43.6142 109.53 35.7885 104.949 28.088 100.241C27.8521 100.097 27.594 100.431 27.7935 100.622C34.0779 106.625 42.3294 110.623 49.8139 114.887C58.0124 119.558 66.636 125.403 75.6276 128.428C75.949 128.537 76.1287 128.064 75.8524 127.897Z" fill="#AF9B64" fill-opacity="0.5"/>
<path d="M28.3698 45.1866C26.4232 54.1609 26.9964 64.1943 26.7882 73.3252C26.5855 82.2385 25.7306 91.7439 27.731 100.516C27.7927 100.786 28.2107 100.723 28.2083 100.451C28.1165 91.7487 28.2091 83.0079 28.2447 74.2989C28.2843 64.6265 29.0038 54.9248 28.9421 45.2642C28.9397 44.942 28.441 44.8589 28.3698 45.1866Z" fill="#AF9B64" fill-opacity="0.5"/>
<path d="M78.7352 25.3429C63.775 24.2276 50.7304 37.4036 52.54 52.3749C52.5819 52.7232 53.0885 52.7438 53.098 52.3749C53.2777 45.4224 54.8403 39.263 59.4497 33.8968C64.1336 28.4459 71.7225 25.8258 78.7352 25.5574C78.8753 25.5519 78.873 25.3524 78.7352 25.3429Z" fill="#AF9B64" fill-opacity="0.5"/>
<path d="M74.4798 25.6945C81.3516 25.514 88.2598 27.5484 93.5072 32.0628C99.0737 36.8511 101.157 43.7316 101.794 50.7894C101.825 51.1448 102.331 51.1528 102.352 50.7894C103.203 35.7009 89.3253 23.4084 74.4513 25.4831C74.3302 25.5005 74.3611 25.6976 74.4798 25.6945Z" fill="#AF9B64" fill-opacity="0.5"/>
<path d="M80.2907 73.6916C73.4189 73.8721 66.5099 71.8377 61.2625 67.3233C55.6968 62.5357 53.6134 55.656 52.9769 48.599C52.9445 48.2436 52.4394 48.2357 52.4189 48.599C51.5671 63.6867 65.4468 75.9793 80.32 73.9029C80.4411 73.8855 80.4095 73.6884 80.2907 73.6916Z" fill="#AF9B64" fill-opacity="0.5"/>
<path d="M76.0335 74.0431C90.993 75.1648 104.039 61.9809 102.23 47.0127C102.188 46.6644 101.681 46.6438 101.672 47.0127C101.492 53.9644 99.93 60.1238 95.3198 65.4892C90.6368 70.9393 83.0446 73.5626 76.0335 73.8286C75.8942 73.8341 75.8966 74.0336 76.0335 74.0431Z" fill="#AF9B64" fill-opacity="0.5"/>
<path d="M111.231 41.7218C101.294 30.4036 82.7695 30.7495 73.5673 42.7271C73.3686 42.9851 73.7858 43.278 74.0059 43.0651C78.9984 38.2285 84.424 34.922 91.4699 34.3204C98.6306 33.7093 105.887 37.1559 111.08 41.8737C111.182 41.9672 111.322 41.8255 111.231 41.7218Z" fill="#AF9B64" fill-opacity="0.5"/>
<path d="M107.944 38.99C113.043 43.7388 116.561 50.1166 117.087 57.1135C117.63 64.3367 114.32 70.6298 109.884 76.0396C109.659 76.3142 110.009 76.6815 110.279 76.4338C121.414 66.2255 120.167 47.7743 108.073 38.8214C107.974 38.7478 107.856 38.9077 107.944 38.99Z" fill="#AF9B64" fill-opacity="0.5"/>
<path d="M78.5028 77.3322C73.4034 72.5842 69.8848 66.204 69.3584 59.2079C68.8153 51.9855 72.1258 45.6931 76.5611 40.2842C76.7859 40.0095 76.436 39.6422 76.166 39.89C65.0308 50.096 66.2799 68.5503 78.373 77.5008C78.4719 77.5736 78.5915 77.4137 78.5028 77.3322Z" fill="#AF9B64" fill-opacity="0.5"/>
<path d="M75.2164 74.5981C85.1492 85.9217 103.68 85.5687 112.881 73.5943C113.08 73.3363 112.662 73.0434 112.442 73.2563C107.45 78.0921 102.024 81.4002 94.9784 82.001C87.8192 82.6121 80.558 79.1655 75.3675 74.4461C75.2646 74.3534 75.1245 74.4944 75.2164 74.5981Z" fill="#AF9B64" fill-opacity="0.5"/>
<path d="M124.649 75.6928C125.476 60.6542 112.017 47.9207 97.0547 50.0271C96.7357 50.0722 96.8235 50.5733 97.1291 50.5749C104.08 50.6192 110.266 52.0551 115.717 56.5609C121.259 61.1426 124.029 68.6841 124.435 75.6928C124.443 75.8313 124.642 75.8313 124.649 75.6928Z" fill="#AF9B64" fill-opacity="0.5"/>
<path d="M124.215 71.438C124.528 78.2995 122.634 85.2568 118.227 90.5897C113.552 96.2488 106.717 98.4771 99.6733 99.2497C99.3226 99.2885 99.3068 99.7943 99.6733 99.8078C114.776 100.366 126.789 86.2376 124.425 71.4087C124.406 71.2892 124.209 71.3185 124.215 71.438Z" fill="#AF9B64" fill-opacity="0.5"/>
<path d="M76.3612 78.1918C76.0477 71.3311 77.942 64.3715 82.348 59.0386C87.0223 53.3803 93.8577 51.152 100.9 50.3794C101.25 50.3406 101.266 49.8347 100.9 49.8213C85.7977 49.2624 73.7853 63.3939 76.1498 78.2203C76.1696 78.3414 76.3667 78.3121 76.3612 78.1918Z" fill="#AF9B64" fill-opacity="0.5"/>
<path d="M75.9264 73.9355C75.0929 88.9741 88.5617 101.71 103.52 99.6036C103.839 99.5585 103.751 99.0574 103.446 99.0558C96.4958 99.0123 90.3088 97.5763 84.8579 93.069C79.3184 88.4889 76.5431 80.9435 76.1409 73.9355C76.133 73.7978 75.9335 73.7978 75.9264 73.9355Z" fill="#AF9B64" fill-opacity="0.5"/>
<path d="M110.994 108.243C121.486 97.4741 119.76 79.0072 107.102 70.758C106.837 70.5854 106.525 70.986 106.764 71.1966C111.721 75.5804 115.351 80.4439 116.696 87.037C118.201 94.4083 115.34 102.296 110.843 108.092C110.76 108.198 110.895 108.345 110.994 108.243Z" fill="#AF9B64" fill-opacity="0.5"/>
<path d="M113.474 104.742C109.341 109.94 103.607 113.817 97.0609 115.127C89.6081 116.619 82.6461 113.705 76.6561 109.521C76.3941 109.338 76.0893 109.745 76.3181 109.96C87.3513 120.277 105.655 117.638 113.643 104.872C113.706 104.77 113.55 104.645 113.474 104.742Z" fill="#AF9B64" fill-opacity="0.5"/>
<path d="M72.974 78.3565C77.1053 73.1581 82.8412 69.2793 89.3868 67.97C96.838 66.4795 103.8 69.3925 109.79 73.5753C110.052 73.7581 110.357 73.3512 110.128 73.1367C99.0949 62.8207 80.7909 65.4583 72.8054 78.2266C72.7413 78.3287 72.8972 78.453 72.974 78.3565Z" fill="#AF9B64" fill-opacity="0.5"/>
<path d="M75.454 74.8545C64.9567 85.6185 66.6879 104.095 79.3446 112.34C79.609 112.513 79.9209 112.112 79.6826 111.902C74.7249 107.519 71.0947 102.655 69.7498 96.0627C68.2457 88.6923 71.1058 80.7985 75.6051 75.0049C75.6875 74.8996 75.5529 74.7524 75.454 74.8545Z" fill="#AF9B64" fill-opacity="0.5"/>
<path d="M80.2243 122.423C95.2455 121.402 106.218 106.515 102.336 91.9165C102.257 91.6196 101.75 91.6718 101.788 91.9909C102.598 98.8262 101.937 105.065 98.252 111.019C94.4262 117.201 87.1658 120.941 80.1958 122.213C80.0763 122.234 80.104 122.431 80.2243 122.423Z" fill="#AF9B64" fill-opacity="0.5"/>
<path d="M84.3891 121.474C77.2204 122.672 69.7826 121.452 63.7911 117.251C58.1012 113.263 55.3504 107.003 53.8052 100.464C53.734 100.162 53.2297 100.222 53.2574 100.538C54.5541 115.619 69.9711 125.816 84.4468 121.681C84.5822 121.642 84.5236 121.451 84.3891 121.474Z" fill="#AF9B64" fill-opacity="0.5"/>
<path d="M71.8674 74.7785C79.0352 73.5792 86.4754 74.799 92.4661 78.9992C98.1552 82.9872 100.905 89.2471 102.451 95.7856C102.522 96.088 103.027 96.0279 102.999 95.7112C101.702 80.6315 86.2854 70.4334 71.8096 74.571C71.6742 74.6098 71.7336 74.8006 71.8674 74.7785Z" fill="#AF9B64" fill-opacity="0.5"/>
<path d="M76.0337 73.8285C61.0109 74.8441 50.0387 89.7403 53.9207 104.336C53.9998 104.632 54.5064 104.58 54.4685 104.261C53.6587 97.4258 54.3188 91.1873 58.0037 85.233C61.8286 79.0515 69.093 75.308 76.0622 74.0391C76.1817 74.0177 76.154 73.8206 76.0337 73.8285Z" fill="#AF9B64" fill-opacity="0.5"/>
<path d="M47.0303 113.009C58.8843 122.161 77.0877 118.39 83.7782 104.864C83.9389 104.54 83.502 104.289 83.2969 104.583C79.2495 110.375 74.4771 114.682 67.5348 116.566C60.705 118.42 53.0448 116.404 47.1387 112.824C47.0168 112.749 46.9242 112.927 47.0303 113.009Z" fill="#AF9B64" fill-opacity="0.5"/>
<path d="M50.7667 115.054C45.0839 111.511 40.5521 106.201 38.5398 99.7729C36.2901 92.5853 38.353 85.4277 41.7996 79.046C41.9745 78.723 41.5265 78.4792 41.3183 78.7649C32.3995 90.9182 37.0627 108.759 50.6591 115.239C50.7818 115.298 50.8854 115.128 50.7667 115.054Z" fill="#AF9B64" fill-opacity="0.5"/>
<path d="M72.3506 71.7965C78.0326 75.3389 82.5669 80.6496 84.5783 87.0774C86.828 94.2642 84.7651 101.422 81.3185 107.802C81.1436 108.125 81.5916 108.369 81.7998 108.083C90.7186 95.9305 86.0538 78.0897 72.4583 71.6113C72.3348 71.5527 72.2319 71.7229 72.3506 71.7965Z" fill="#AF9B64" fill-opacity="0.5"/>
<path d="M76.1091 73.8602C64.2535 64.696 46.0375 68.441 39.3382 81.9859C39.1775 82.3104 39.6145 82.5614 39.8195 82.2669C43.8669 76.4756 48.6394 72.1678 55.5816 70.283C62.4099 68.4299 70.0764 70.4453 75.9793 74.028C76.0814 74.0906 76.2065 73.9354 76.1091 73.8602Z" fill="#AF9B64" fill-opacity="0.5"/>
<path d="M27.4439 76.2991C27.8927 91.3536 42.355 102.88 57.0913 99.5489C57.3952 99.48 57.3327 98.975 57.0169 99.0011C50.1506 99.5521 43.9485 98.6473 38.1406 94.7384C32.115 90.6839 28.6582 83.2738 27.6552 76.2706C27.6378 76.1487 27.4407 76.1796 27.4439 76.2991Z" fill="#AF9B64" fill-opacity="0.5"/>
<path d="M28.2388 80.5199C27.3364 73.6656 28.6679 66.5729 32.6274 60.8537C36.7943 54.8352 43.465 52.071 50.3867 50.7087C50.697 50.6477 50.625 50.1459 50.3123 50.1609C35.2175 50.8852 24.4067 65.9555 28.0283 80.5492C28.0568 80.6632 28.2547 80.641 28.2388 80.5199Z" fill="#AF9B64" fill-opacity="0.5"/>
<path d="M75.3472 69.714C76.2489 76.5667 74.919 83.6625 70.9595 89.381C66.7925 95.3971 60.1234 98.1629 53.2025 99.5244C52.8922 99.5854 52.9643 100.087 53.2769 100.072C68.371 99.3487 79.1801 84.2768 75.5586 69.6847C75.5301 69.5707 75.3314 69.5928 75.3472 69.714Z" fill="#AF9B64" fill-opacity="0.5"/>
<path d="M76.1411 73.9355C75.6986 58.8787 61.2275 47.3547 46.4937 50.6841C46.1897 50.753 46.2523 51.2581 46.5681 51.2319C53.4344 50.6818 59.6372 51.5858 65.4459 55.4938C71.4707 59.5484 74.9307 66.9616 75.9305 73.964C75.9471 74.0859 76.1442 74.055 76.1411 73.9355Z" fill="#AF9B64" fill-opacity="0.5"/>
<path d="M43.2832 37.9507C31.9611 47.8803 32.2865 66.413 44.2505 75.6319C44.5086 75.8306 44.8007 75.4134 44.5885 75.1933C39.7575 70.1929 36.4589 64.7602 35.866 57.7135C35.2628 50.5504 38.7126 43.2939 43.4344 38.1027C43.5286 37.999 43.3869 37.8588 43.2832 37.9507Z" fill="#AF9B64" fill-opacity="0.5"/>
<path d="M40.5496 41.2357C45.3 36.1386 51.6778 32.6256 58.6739 32.1063C65.8963 31.5688 72.1823 34.8895 77.5833 39.3319C77.858 39.5575 78.2253 39.2076 77.9783 38.9377C67.7882 27.7874 49.3371 29.0167 40.3802 41.1059C40.3082 41.2048 40.4681 41.3235 40.5496 41.2357Z" fill="#AF9B64" fill-opacity="0.5"/>
<path d="M78.8452 70.7271C74.0949 75.8226 67.7155 79.3373 60.7202 79.8573C53.4993 80.394 47.2125 77.0749 41.8115 72.6333C41.5368 72.4077 41.1695 72.7576 41.4165 73.0275C51.6074 84.1778 70.057 82.9437 79.0138 70.857C79.0866 70.758 78.9267 70.6385 78.8452 70.7271Z" fill="#AF9B64" fill-opacity="0.5"/>
<path d="M76.1097 74.0114C87.4397 64.0873 87.1057 45.5459 75.144 36.3302C74.8859 36.1315 74.5938 36.5487 74.806 36.7688C79.6378 41.7692 82.9364 47.2011 83.5301 54.2478C84.1333 61.4101 80.6835 68.6714 75.9593 73.8594C75.8643 73.9631 76.006 74.1025 76.1097 74.0114Z" fill="#AF9B64" fill-opacity="0.5"/>
</svg>
